<svg width="201" height="29" viewBox="0 0 201 29" fill="none" xmlns="http://www.w3.org/2000/svg"><path d="M33.328 8.38327C31.5545 7.02643 29.3827 6.29281 27.1497 6.29622C26.4912 6.29615 25.8343 6.3595 25.188 6.48538C23.6058 6.79449 22.1201 7.47624 20.854 8.47411C20.8195 8.50114 20.7856 8.53161 20.7517 8.55633V3.79464C20.7276 2.8267 20.3435 1.90252 19.6744 1.20263C19.0054 0.502742 18.0994 0.077428 17.1336 0.00977406C17.0444 0.00344967 16.953 0 16.8622 0V17.4622C16.7942 17.8327 16.6926 18.1962 16.5586 18.5483C16.1174 19.7126 15.3419 20.7206 14.3296 21.4454V21.4454C13.4138 22.1011 12.3389 22.4989 11.217 22.5975C10.0951 22.6962 8.96726 22.4919 7.95119 22.0061C6.93513 21.5202 6.06806 20.7706 5.44043 19.8355C4.81281 18.9003 4.44763 17.8139 4.38301 16.6895C4.37956 16.6579 4.37668 16.5895 4.37438 16.517V16.1916C4.37783 16.0703 4.38358 15.9501 4.39278 15.8305C4.46983 14.8637 4.76909 13.9278 5.26725 13.0956C5.7654 12.2634 6.44899 11.5575 7.26473 11.0329C8.08048 10.5083 9.00635 10.1791 9.97019 10.0711C10.934 9.96302 11.9098 10.079 12.8215 10.41C13.2826 9.18991 14.1103 8.14267 15.1908 7.41219C14.3594 6.9857 13.4731 6.67613 12.557 6.49228V6.49228C11.1371 6.20892 9.67319 6.23083 8.26243 6.55656C6.85166 6.88229 5.52631 7.50438 4.37438 8.38155V6.37729H0.483154V26.7505C1.25383 26.7508 2.00727 26.5224 2.64801 26.0942C3.28874 25.6659 3.78793 25.0571 4.08231 24.3449C4.17737 24.4254 4.27434 24.5045 4.37323 24.5823C6.14626 25.9379 8.31687 26.6709 10.5487 26.6677C11.2213 26.6678 11.8922 26.6017 12.5518 26.4705V26.4705C14.1247 26.156 15.6006 25.4729 16.8582 24.4771L16.8858 24.4553C17.6329 23.8603 18.293 23.1636 18.8469 22.3855L18.8549 22.3958C18.8745 22.3682 18.8946 22.3383 18.9124 22.3113C19.0274 22.1515 19.1338 21.9876 19.2344 21.8215C19.2574 21.7847 19.2816 21.7479 19.3034 21.7099C19.4675 21.4378 19.6181 21.158 19.7553 20.8705C19.7869 20.8044 19.8174 20.7377 19.8484 20.671C19.8795 20.6043 19.9117 20.5278 19.9422 20.456C20.0135 20.2887 20.0807 20.119 20.1417 19.9477C20.1664 19.881 20.1888 19.8138 20.213 19.7459C20.2388 19.6666 20.2647 19.5872 20.2894 19.5073C20.3142 19.4274 20.3389 19.348 20.3613 19.267C20.3837 19.1859 20.4067 19.1054 20.4268 19.0244C20.447 18.9433 20.4659 18.8657 20.4843 18.7863C20.5056 18.6943 20.5246 18.6023 20.5418 18.5092C20.5574 18.4339 20.5723 18.358 20.585 18.2792C20.5976 18.2005 20.6149 18.1113 20.6269 18.0268C20.6269 18.0216 20.6298 18.0165 20.6309 18.0107C20.6407 17.932 20.6522 17.8532 20.6626 17.7733C20.6729 17.6934 20.6838 17.6008 20.6913 17.5174C20.7091 17.3564 20.7201 17.1943 20.7304 17.0322C20.7304 17.0103 20.7304 16.9879 20.7304 16.9655C20.7311 16.9624 20.7311 16.9593 20.7304 16.9563C20.7339 16.8896 20.735 16.8246 20.7373 16.7573C20.7373 16.7418 20.7373 16.7263 20.7373 16.7102C20.7373 16.6746 20.7402 16.6383 20.7402 16.6033V15.903C20.8523 14.2764 21.5911 12.7569 22.801 11.664C24.011 10.5712 25.5977 9.99038 27.2272 10.0438C28.8567 10.0972 30.4019 10.7807 31.5377 11.9504C32.6734 13.1201 33.3111 14.6848 33.3165 16.3152V16.3417C33.3147 17.4915 32.9978 18.6188 32.4004 19.6013C31.803 20.5837 30.9479 21.3837 29.9279 21.9144C28.9078 22.4451 27.7619 22.6862 26.6145 22.6116C25.4671 22.5369 24.3621 22.1493 23.4194 21.4909C22.7674 22.6486 21.896 23.6682 20.854 24.4927C22.1203 25.4903 23.6059 26.172 25.188 26.4814C25.8343 26.6073 26.4912 26.6706 27.1497 26.6705C29.8485 26.6707 32.437 25.5999 34.347 23.6931C36.2569 21.7864 37.3321 19.1997 37.3365 16.5009V16.4612C37.3345 14.8972 36.9718 13.3547 36.2766 11.9537C35.5813 10.5527 34.5723 9.33085 33.328 8.38327V8.38327Z" fill="url(#paint0_linear_141_10)"/><path d="M2.40499 4.89007C2.88066 4.89007 3.34564 4.74902 3.74114 4.48475C4.13664 4.22049 4.44489 3.84488 4.62692 3.40542C4.80895 2.96597 4.85657 2.48241 4.76378 2.01588C4.67098 1.54936 4.44193 1.12083 4.10558 0.784486C3.76924 0.448141 3.34071 0.219088 2.87419 0.12629C2.40766 0.0334933 1.9241 0.0811202 1.48464 0.263148C1.04519 0.445177 0.669579 0.753431 0.405315 1.14893C0.141051 1.54443 6.87632e-08 2.00941 6.87632e-08 2.48507C-7.54662e-05 2.80092 0.06208 3.11369 0.182916 3.40551C0.303751 3.69734 0.480899 3.96249 0.704238 4.18583C0.927577 4.40917 1.19273 4.58632 1.48455 4.70715C1.77637 4.82799 2.08914 4.89014 2.40499 4.89007V4.89007Z" fill="url(#paint1_linear_141_10)"/><path d="M47.4706 14.064V22H46.6866V14.064H47.4706ZM46.4626 11.52C46.4626 11.712 46.5266 11.872 46.6546 11.984C46.7826 12.096 46.9266 12.144 47.0866 12.144C47.2466 12.144 47.3906 12.096 47.5186 11.984C47.6466 11.872 47.7266 11.712 47.7266 11.52C47.7266 11.328 47.6466 11.184 47.5186 11.072C47.3906 10.96 47.2466 10.896 47.0866 10.896C46.9266 10.896 46.7826 10.96 46.6546 11.072C46.5266 11.184 46.4626 11.328 46.4626 11.52ZM50.0616 14.096V22H50.8456V17.6C50.8456 16.784 51.1016 16.096 51.6136 15.552C52.1256 15.008 52.7976 14.736 53.6136 14.72C54.4776 14.72 55.1656 14.944 55.6776 15.424C56.1736 15.904 56.4296 16.576 56.4296 17.456V22H57.2136V17.44C57.2136 16.368 56.8776 15.52 56.2216 14.896C55.5656 14.272 54.7016 13.952 53.6456 13.952C52.3336 13.984 51.3896 14.496 50.8296 15.504V14.096H50.0616ZM63.1903 14.72C64.1183 14.72 64.8863 15.04 65.4943 15.648C66.1023 16.272 66.4223 17.072 66.4223 18.032C66.4223 19.024 66.1183 19.824 65.5103 20.432C64.9023 21.056 64.1183 21.36 63.1903 21.36C62.2623 21.36 61.4783 21.072 60.8703 20.496C60.2623 19.92 59.9583 19.104 59.9583 18.048C59.9583 16.992 60.2623 16.16 60.8703 15.584C61.4783 15.008 62.2463 14.72 63.1903 14.72ZM66.4383 10.8V15.824C66.1183 15.216 65.6703 14.752 65.0943 14.432C64.5183 14.128 63.8623 13.968 63.1583 13.968C62.0063 13.968 61.0623 14.336 60.3103 15.056C59.5583 15.792 59.1903 16.784 59.1903 18.048C59.1903 19.328 59.5583 20.32 60.3103 21.04C61.0463 21.776 61.9903 22.128 63.1423 22.128C63.8143 22.128 64.4543 21.968 65.0623 21.632C65.6543 21.312 66.1183 20.848 66.4383 20.256V22H67.2063V10.8H66.4383ZM70.58 14.064V22H69.796V14.064H70.58ZM69.572 11.52C69.572 11.712 69.636 11.872 69.764 11.984C69.892 12.096 70.036 12.144 70.196 12.144C70.356 12.144 70.5 12.096 70.628 11.984C70.756 11.872 70.836 11.712 70.836 11.52C70.836 11.328 70.756 11.184 70.628 11.072C70.5 10.96 70.356 10.896 70.196 10.896C70.036 10.896 69.892 10.96 69.764 11.072C69.636 11.184 69.572 11.328 69.572 11.52ZM79.891 14.096V15.824C79.571 15.232 79.107 14.784 78.531 14.464C77.955 14.16 77.331 14 76.659 14C75.523 14 74.563 14.384 73.795 15.136C73.027 15.904 72.643 16.864 72.643 18.048C72.643 19.232 73.027 20.208 73.811 20.976C74.579 21.744 75.539 22.128 76.659 22.128C78.067 22.128 79.139 21.536 79.891 20.32V22H80.675V14.096H79.891ZM76.659 14.752C77.267 14.752 77.795 14.88 78.275 15.12C78.739 15.376 79.091 15.68 79.347 16.064C79.587 16.448 79.763 16.88 79.891 17.36C80.003 17.84 80.003 18.304 79.891 18.768C79.763 19.248 79.587 19.664 79.347 20.048C79.091 20.432 78.739 20.752 78.275 20.992C77.795 21.248 77.267 21.36 76.659 21.36C75.731 21.36 74.963 21.056 74.355 20.432C73.731 19.824 73.427 19.024 73.427 18.048C73.427 17.088 73.731 16.288 74.355 15.68C74.963 15.072 75.731 14.752 76.659 14.752ZM83.2648 14.096V22H84.0488V17.6C84.0488 16.784 84.3048 16.096 84.8168 15.552C85.3288 15.008 86.0008 14.736 86.8168 14.72C87.6808 14.72 88.3688 14.944 88.8808 15.424C89.3768 15.904 89.6328 16.576 89.6328 17.456V22H90.4167V17.44C90.4167 16.368 90.0808 15.52 89.4248 14.896C88.7688 14.272 87.9048 13.952 86.8488 13.952C85.5368 13.984 84.5928 14.496 84.0328 15.504V14.096H83.2648Z" fill="url(#paint2_linear_141_10)"/><path d="M99.0939 19.872C98.6139 20.368 97.9899 20.608 97.2219 20.608C96.5019 20.608 95.9099 20.384 95.4299 19.936C94.9499 19.488 94.7099 18.864 94.7099 18.064C94.7099 17.296 94.9499 16.688 95.4299 16.208C95.9099 15.728 96.5019 15.488 97.2379 15.488C97.9419 15.488 98.5339 15.728 99.0139 16.192L100.07 15.088C99.2699 14.32 98.3259 13.92 97.2219 13.92C96.0219 13.92 95.0299 14.288 94.2459 15.008C93.4459 15.744 93.0619 16.752 93.0619 18.064C93.0619 19.376 93.4459 20.4 94.2459 21.12C95.0299 21.856 96.0219 22.208 97.2219 22.208C98.3739 22.208 99.3819 21.808 100.214 20.976L99.0939 19.872ZM107.783 15.36C107.527 14.928 107.159 14.576 106.679 14.32C106.183 14.064 105.655 13.936 105.095 13.936C103.911 13.936 102.935 14.304 102.167 15.04C101.399 15.776 101.015 16.768 101.015 18.048C101.015 19.36 101.383 20.384 102.151 21.12C102.903 21.856 103.879 22.224 105.063 22.208C105.591 22.208 106.119 22.08 106.631 21.824C107.143 21.568 107.527 21.2 107.783 20.72L107.863 22H109.431V14.112H107.831L107.783 15.36ZM105.223 15.44C105.687 15.44 106.103 15.536 106.471 15.728C106.839 15.92 107.111 16.176 107.303 16.48C107.495 16.8 107.623 17.136 107.719 17.504C107.815 17.888 107.815 18.256 107.719 18.624C107.623 18.992 107.495 19.328 107.303 19.632C107.111 19.952 106.839 20.192 106.471 20.384C106.103 20.576 105.687 20.672 105.223 20.672C104.487 20.672 103.879 20.432 103.399 19.952C102.903 19.472 102.663 18.848 102.663 18.048C102.663 17.264 102.903 16.64 103.399 16.16C103.879 15.68 104.487 15.44 105.223 15.44ZM117.635 14.96C116.835 14.256 115.827 13.904 114.595 13.904C113.731 13.904 112.979 14.112 112.307 14.512C111.635 14.912 111.315 15.504 111.315 16.304C111.315 17.68 112.387 18.48 114.531 18.672C115.139 18.736 115.603 18.848 115.907 19.008C116.211 19.168 116.355 19.424 116.355 19.76C116.339 20.112 116.163 20.368 115.843 20.528C115.507 20.704 115.123 20.784 114.675 20.784C113.507 20.768 112.579 20.384 111.907 19.616L111.043 20.784C111.907 21.76 113.107 22.24 114.643 22.24C115.651 22.24 116.467 22.016 117.075 21.552C117.683 21.104 117.987 20.496 118.003 19.744C118.003 19.264 117.891 18.864 117.699 18.528C117.507 18.208 117.219 17.952 116.851 17.792C116.483 17.632 116.131 17.504 115.811 17.44C115.491 17.376 115.107 17.312 114.659 17.264C113.523 17.168 112.947 16.832 112.947 16.256C112.947 15.952 113.091 15.712 113.395 15.552C113.699 15.392 114.115 15.312 114.627 15.312C115.475 15.312 116.163 15.568 116.707 16.048L117.635 14.96ZM119.651 10.8V22H121.299V17.888C121.299 17.232 121.491 16.672 121.907 16.224C122.323 15.776 122.835 15.536 123.475 15.536C124.083 15.536 124.579 15.728 124.931 16.112C125.283 16.496 125.459 17.04 125.459 17.76V22H127.107V17.744C127.107 16.592 126.835 15.68 126.291 15.008C125.747 14.336 124.931 14 123.859 14C122.755 14 121.907 14.432 121.299 15.28V10.8H119.651ZM133.501 15.488C134.205 15.488 134.797 15.728 135.277 16.176C135.757 16.64 135.997 17.264 135.997 18.048C135.997 18.816 135.757 19.44 135.277 19.92C134.797 20.4 134.205 20.624 133.501 20.624C132.781 20.624 132.173 20.384 131.693 19.904C131.213 19.424 130.973 18.816 130.973 18.048C130.973 17.312 131.213 16.688 131.709 16.208C132.189 15.728 132.797 15.488 133.501 15.488ZM129.229 10.816V22H130.781L130.877 20.752C131.453 21.696 132.365 22.16 133.613 22.16C134.781 22.16 135.741 21.792 136.509 21.056C137.261 20.32 137.645 19.328 137.645 18.048C137.645 16.752 137.261 15.744 136.525 15.024C135.773 14.304 134.813 13.936 133.645 13.936C133.117 13.936 132.589 14.064 132.045 14.32C131.501 14.576 131.117 14.912 130.877 15.344V10.816H129.229ZM145.689 15.36C145.433 14.928 145.065 14.576 144.585 14.32C144.089 14.064 143.561 13.936 143.001 13.936C141.817 13.936 140.841 14.304 140.073 15.04C139.305 15.776 138.921 16.768 138.921 18.048C138.921 19.36 139.289 20.384 140.057 21.12C140.809 21.856 141.785 22.224 142.969 22.208C143.497 22.208 144.025 22.08 144.537 21.824C145.049 21.568 145.433 21.2 145.689 20.72L145.769 22H147.337V14.112H145.737L145.689 15.36ZM143.129 15.44C143.593 15.44 144.009 15.536 144.377 15.728C144.745 15.92 145.017 16.176 145.209 16.48C145.401 16.8 145.529 17.136 145.625 17.504C145.721 17.888 145.721 18.256 145.625 18.624C145.529 18.992 145.401 19.328 145.209 19.632C145.017 19.952 144.745 20.192 144.377 20.384C144.009 20.576 143.593 20.672 143.129 20.672C142.393 20.672 141.785 20.432 141.305 19.952C140.809 19.472 140.569 18.848 140.569 18.048C140.569 17.264 140.809 16.64 141.305 16.16C141.785 15.68 142.393 15.44 143.129 15.44ZM155.125 19.872C154.645 20.368 154.021 20.608 153.253 20.608C152.533 20.608 151.941 20.384 151.461 19.936C150.981 19.488 150.741 18.864 150.741 18.064C150.741 17.296 150.981 16.688 151.461 16.208C151.941 15.728 152.533 15.488 153.269 15.488C153.973 15.488 154.565 15.728 155.045 16.192L156.101 15.088C155.301 14.32 154.357 13.92 153.253 13.92C152.053 13.92 151.061 14.288 150.277 15.008C149.477 15.744 149.093 16.752 149.093 18.064C149.093 19.376 149.477 20.4 150.277 21.12C151.061 21.856 152.053 22.208 153.253 22.208C154.405 22.208 155.413 21.808 156.245 20.976L155.125 19.872ZM157.714 10.816V22H159.378V18.352L162.754 22H164.77V21.888L160.898 17.824L164.306 14.208V14.112H162.306L159.378 17.344V10.816H157.714ZM165.741 21.12C165.741 21.552 165.901 21.856 166.253 22.032C166.589 22.208 166.924 22.208 167.261 22.032C167.597 21.856 167.773 21.552 167.773 21.12C167.773 20.704 167.597 20.4 167.261 20.224C166.924 20.064 166.589 20.064 166.253 20.224C165.901 20.4 165.741 20.704 165.741 21.12ZM175.375 19.872C174.895 20.368 174.271 20.608 173.503 20.608C172.783 20.608 172.191 20.384 171.711 19.936C171.231 19.488 170.991 18.864 170.991 18.064C170.991 17.296 171.231 16.688 171.711 16.208C172.191 15.728 172.783 15.488 173.519 15.488C174.223 15.488 174.815 15.728 175.295 16.192L176.351 15.088C175.551 14.32 174.607 13.92 173.503 13.92C172.303 13.92 171.311 14.288 170.527 15.008C169.727 15.744 169.343 16.752 169.343 18.064C169.343 19.376 169.727 20.4 170.527 21.12C171.311 21.856 172.303 22.208 173.503 22.208C174.655 22.208 175.663 21.808 176.495 20.976L175.375 19.872ZM181.344 13.952C180.128 13.952 179.152 14.352 178.4 15.12C177.648 15.904 177.28 16.88 177.28 18.064C177.28 19.248 177.648 20.24 178.4 21.008C179.136 21.776 180.128 22.16 181.344 22.16C182.56 22.16 183.552 21.776 184.304 21.008C185.056 20.24 185.44 19.248 185.44 18.064C185.44 16.896 185.056 15.92 184.288 15.136C183.52 14.352 182.544 13.952 181.344 13.952ZM181.344 15.472C182.048 15.472 182.624 15.728 183.088 16.24C183.536 16.752 183.776 17.36 183.776 18.064C183.776 18.8 183.552 19.408 183.104 19.888C182.656 20.384 182.08 20.624 181.344 20.624C180.608 20.624 180.016 20.384 179.584 19.888C179.136 19.408 178.928 18.8 178.928 18.064C178.928 17.344 179.136 16.736 179.584 16.224C180.032 15.728 180.608 15.472 181.344 15.472ZM194.239 22V17.664C194.239 17.072 194.415 16.576 194.767 16.16C195.119 15.744 195.583 15.536 196.159 15.536C196.719 15.536 197.151 15.744 197.455 16.128C197.743 16.512 197.903 17.024 197.903 17.632V22H199.567V17.632C199.567 16.48 199.279 15.584 198.703 14.944C198.127 14.304 197.295 13.984 196.223 13.984C194.991 13.984 194.095 14.512 193.519 15.552C193.103 14.496 192.287 13.968 191.039 13.968C190.575 13.968 190.143 14.064 189.743 14.256C189.343 14.448 189.039 14.752 188.831 15.152L188.719 14.096H187.183V22H188.831V17.664C188.831 17.072 189.007 16.56 189.359 16.144C189.711 15.728 190.159 15.52 190.735 15.52C191.295 15.52 191.743 15.728 192.079 16.144C192.399 16.56 192.575 17.056 192.575 17.664V22H194.239Z" fill="url(#paint3_linear_141_10)"/><defs><linearGradient id="paint0_linear_141_10" x1="1.49871" y1="-2.57216" x2="29.7764" y2="24.3248" gradientUnits="userSpaceOnUse"><stop stop-color="white"/><stop offset="1" stop-color="#EDECEE"/></linearGradient><linearGradient id="paint1_linear_141_10" x1="0.132547" y1="-0.382421" x2="4.89311" y2="2.90435" gradientUnits="userSpaceOnUse"><stop stop-color="white"/><stop offset="1" stop-color="#EDECEE"/></linearGradient><linearGradient id="paint2_linear_141_10" x1="68.5" y1="9" x2="68.5" y2="29" gradientUnits="userSpaceOnUse"><stop stop-color="white"/><stop offset="1" stop-color="#E2E2E2"/></linearGradient><linearGradient id="paint3_linear_141_10" x1="146.5" y1="8" x2="146.5" y2="29" gradientUnits="userSpaceOnUse"><stop stop-color="white"/><stop offset="1" stop-color="#E2E2E2"/></linearGradient></defs></svg>