<svg width="76" height="49" viewBox="0 0 76 49" fill="none" xmlns="http://www.w3.org/2000/svg"><path d="M33.3927 23.1481C31.6689 21.8293 29.5581 21.1163 27.3877 21.1196C26.7477 21.1195 26.1092 21.1811 25.481 21.3034C23.9432 21.6039 22.4992 22.2665 21.2686 23.2364C21.2351 23.2626 21.2021 23.2923 21.1692 23.3163V18.6882C21.1457 17.7474 20.7724 16.8491 20.1221 16.1689C19.4718 15.4886 18.5913 15.0753 17.6525 15.0095C17.5659 15.0034 17.4771 15 17.3888 15V31.9723C17.3227 32.3324 17.2239 32.6858 17.0937 33.0279C16.6649 34.1596 15.9111 35.1393 14.9272 35.8438V35.8438C14.0371 36.481 12.9924 36.8678 11.902 36.9636C10.8115 37.0594 9.71533 36.8609 8.72777 36.3887C7.74021 35.9165 6.89746 35.1879 6.28744 34.279C5.67743 33.3701 5.3225 32.3141 5.25968 31.2213C5.25633 31.1906 5.25354 31.1241 5.2513 31.0536V30.7374C5.25465 30.6194 5.26024 30.5027 5.26918 30.3864C5.34407 29.4467 5.63494 28.537 6.11912 27.7282C6.60329 26.9194 7.2677 26.2333 8.06057 25.7234C8.85343 25.2135 9.75333 24.8936 10.6901 24.7885C11.6269 24.6835 12.5753 24.7962 13.4614 25.1179C13.9096 23.9321 14.7141 22.9142 15.7643 22.2042C14.9562 21.7897 14.0948 21.4888 13.2044 21.3101V21.3101C11.8243 21.0347 10.4015 21.056 9.03027 21.3726C7.65908 21.6892 6.37092 22.2939 5.2513 23.1464V21.1984H1.46924V41C2.21829 41.0004 2.9506 40.7784 3.57336 40.3621C4.19612 39.9459 4.6813 39.3542 4.96742 38.6619C5.05981 38.7402 5.15407 38.8171 5.25018 38.8927C6.97347 40.2102 9.08318 40.9226 11.2524 40.9195C11.9061 40.9196 12.5582 40.8554 13.1993 40.7279V40.7279C14.7281 40.4222 16.1626 39.7582 17.3849 38.7904L17.4117 38.7692C18.1379 38.1909 18.7795 37.5138 19.3178 36.7575L19.3256 36.7675C19.3446 36.7407 19.3642 36.7117 19.3815 36.6854C19.4933 36.53 19.5967 36.3708 19.6944 36.2093C19.7168 36.1735 19.7403 36.1377 19.7615 36.1009C19.921 35.8364 20.0674 35.5644 20.2007 35.285C20.2315 35.2207 20.2611 35.1559 20.2913 35.0911C20.3214 35.0263 20.3527 34.9519 20.3823 34.8821C20.4516 34.7195 20.517 34.5546 20.5763 34.3881C20.6003 34.3233 20.6221 34.2579 20.6455 34.192C20.6707 34.1148 20.6958 34.0377 20.7199 33.96C20.7439 33.8824 20.7679 33.8053 20.7897 33.7265C20.8115 33.6477 20.8339 33.5694 20.8534 33.4906C20.873 33.4118 20.8914 33.3364 20.9093 33.2593C20.93 33.1699 20.9484 33.0805 20.9652 32.9899C20.9803 32.9167 20.9948 32.843 21.0071 32.7664C21.0194 32.6899 21.0362 32.6032 21.0479 32.5211C21.0479 32.5161 21.0507 32.511 21.0518 32.5054C21.0613 32.4289 21.0725 32.3523 21.0825 32.2747C21.0926 32.197 21.1032 32.107 21.1105 32.026C21.1278 31.8695 21.1384 31.7119 21.1485 31.5543C21.1485 31.5331 21.1485 31.5113 21.1485 31.4895C21.1491 31.4866 21.1491 31.4835 21.1485 31.4806C21.1518 31.4158 21.153 31.3526 21.1552 31.2872C21.1552 31.2721 21.1552 31.2571 21.1552 31.2414C21.1552 31.2068 21.158 31.1716 21.158 31.1375V30.4568C21.267 28.8759 21.985 27.399 23.161 26.3368C24.337 25.2746 25.8792 24.7101 27.463 24.762C29.0468 24.8139 30.5487 25.4783 31.6526 26.6152C32.7565 27.7521 33.3763 29.2729 33.3815 30.8575V30.8832C33.3797 32.0008 33.0718 33.0965 32.4911 34.0514C31.9105 35.0063 31.0793 35.7838 30.0879 36.2996C29.0965 36.8154 27.9827 37.0498 26.8675 36.9772C25.7523 36.9046 24.6783 36.5279 23.7621 35.888C23.1283 37.0132 22.2814 38.0042 21.2686 38.8055C22.4993 39.7752 23.9433 40.4378 25.481 40.7385C26.1092 40.8608 26.7477 40.9224 27.3877 40.9223C30.0107 40.9225 32.5267 39.8817 34.383 38.0285C36.2394 36.1752 37.2845 33.6611 37.2887 31.038V30.9994C37.2868 29.4793 36.9342 27.9801 36.2585 26.6183C35.5828 25.2566 34.6021 24.0691 33.3927 23.1481V23.1481Z" fill="url(#paint0_linear_3270_6037)"/><path d="M3.33752 19.7532C3.79984 19.7532 4.25178 19.6161 4.63618 19.3592C5.02059 19.1024 5.32019 18.7373 5.49712 18.3102C5.67404 17.8831 5.72033 17.4131 5.63013 16.9596C5.53994 16.5062 5.31731 16.0897 4.9904 15.7628C4.6635 15.4359 4.24699 15.2132 3.79355 15.123C3.34012 15.0328 2.87012 15.0791 2.44299 15.2561C2.01587 15.433 1.65079 15.7326 1.39394 16.117C1.13709 16.5014 1 16.9533 1 17.4157C0.999927 17.7226 1.06034 18.0266 1.17778 18.3103C1.29523 18.5939 1.46741 18.8516 1.68448 19.0687C1.90156 19.2858 2.15927 19.4579 2.44291 19.5754C2.72654 19.6928 3.03054 19.7532 3.33752 19.7532V19.7532Z" fill="url(#paint1_linear_3270_6037)"/><path d="M0.742656 45.016V47H0.546656V45.016H0.742656ZM0.490656 44.38C0.490656 44.428 0.506656 44.468 0.538656 44.496C0.570656 44.524 0.606656 44.536 0.646656 44.536C0.686656 44.536 0.722656 44.524 0.754656 44.496C0.786656 44.468 0.806656 44.428 0.806656 44.38C0.806656 44.332 0.786656 44.296 0.754656 44.268C0.722656 44.24 0.686656 44.224 0.646656 44.224C0.606656 44.224 0.570656 44.24 0.538656 44.268C0.506656 44.296 0.490656 44.332 0.490656 44.38ZM1.39041 45.024V47H1.58641V45.9C1.58641 45.696 1.65041 45.524 1.77841 45.388C1.90641 45.252 2.07441 45.184 2.27841 45.18C2.49441 45.18 2.66641 45.236 2.79441 45.356C2.91841 45.476 2.98241 45.644 2.98241 45.864V47H3.17841V45.86C3.17841 45.592 3.09441 45.38 2.93041 45.224C2.76641 45.068 2.55041 44.988 2.28641 44.988C1.95841 44.996 1.72241 45.124 1.58241 45.376V45.024H1.39041ZM4.67256 45.18C4.90456 45.18 5.09656 45.26 5.24856 45.412C5.40056 45.568 5.48056 45.768 5.48056 46.008C5.48056 46.256 5.40456 46.456 5.25256 46.608C5.10056 46.764 4.90456 46.84 4.67256 46.84C4.44056 46.84 4.24456 46.768 4.09256 46.624C3.94056 46.48 3.86456 46.276 3.86456 46.012C3.86456 45.748 3.94056 45.54 4.09256 45.396C4.24456 45.252 4.43656 45.18 4.67256 45.18ZM5.48456 44.2V45.456C5.40456 45.304 5.29256 45.188 5.14856 45.108C5.00456 45.032 4.84056 44.992 4.66456 44.992C4.37656 44.992 4.14056 45.084 3.95256 45.264C3.76456 45.448 3.67256 45.696 3.67256 46.012C3.67256 46.332 3.76456 46.58 3.95256 46.76C4.13656 46.944 4.37256 47.032 4.66056 47.032C4.82856 47.032 4.98856 46.992 5.14056 46.908C5.28856 46.828 5.40456 46.712 5.48456 46.564V47H5.67656V44.2H5.48456ZM6.52 45.016V47H6.324V45.016H6.52ZM6.268 44.38C6.268 44.428 6.284 44.468 6.316 44.496C6.348 44.524 6.384 44.536 6.424 44.536C6.464 44.536 6.5 44.524 6.532 44.496C6.564 44.468 6.584 44.428 6.584 44.38C6.584 44.332 6.564 44.296 6.532 44.268C6.5 44.24 6.464 44.224 6.424 44.224C6.384 44.224 6.348 44.24 6.316 44.268C6.284 44.296 6.268 44.332 6.268 44.38ZM8.84775 45.024V45.456C8.76775 45.308 8.65175 45.196 8.50775 45.116C8.36375 45.04 8.20775 45 8.03975 45C7.75575 45 7.51575 45.096 7.32375 45.284C7.13175 45.476 7.03575 45.716 7.03575 46.012C7.03575 46.308 7.13175 46.552 7.32775 46.744C7.51975 46.936 7.75975 47.032 8.03975 47.032C8.39175 47.032 8.65975 46.884 8.84775 46.58V47H9.04375V45.024H8.84775ZM8.03975 45.188C8.19175 45.188 8.32375 45.22 8.44375 45.28C8.55975 45.344 8.64775 45.42 8.71175 45.516C8.77175 45.612 8.81575 45.72 8.84775 45.84C8.87575 45.96 8.87575 46.076 8.84775 46.192C8.81575 46.312 8.77175 46.416 8.71175 46.512C8.64775 46.608 8.55975 46.688 8.44375 46.748C8.32375 46.812 8.19175 46.84 8.03975 46.84C7.80775 46.84 7.61575 46.764 7.46375 46.608C7.30775 46.456 7.23175 46.256 7.23175 46.012C7.23175 45.772 7.30775 45.572 7.46375 45.42C7.61575 45.268 7.80775 45.188 8.03975 45.188ZM9.69119 45.024V47H9.88719V45.9C9.88719 45.696 9.95119 45.524 10.0792 45.388C10.2072 45.252 10.3752 45.184 10.5792 45.18C10.7952 45.18 10.9672 45.236 11.0952 45.356C11.2192 45.476 11.2832 45.644 11.2832 45.864V47H11.4792V45.86C11.4792 45.592 11.3952 45.38 11.2312 45.224C11.0672 45.068 10.8512 44.988 10.5872 44.988C10.2592 44.996 10.0232 45.124 9.88319 45.376V45.024H9.69119Z" fill="url(#paint2_linear_3270_6037)"/><path d="M13.1485 46.468C13.0285 46.592 12.8725 46.652 12.6805 46.652C12.5005 46.652 12.3525 46.596 12.2325 46.484C12.1125 46.372 12.0525 46.216 12.0525 46.016C12.0525 45.824 12.1125 45.672 12.2325 45.552C12.3525 45.432 12.5005 45.372 12.6845 45.372C12.8605 45.372 13.0085 45.432 13.1285 45.548L13.3925 45.272C13.1925 45.08 12.9565 44.98 12.6805 44.98C12.3805 44.98 12.1325 45.072 11.9365 45.252C11.7365 45.436 11.6405 45.688 11.6405 46.016C11.6405 46.344 11.7365 46.6 11.9365 46.78C12.1325 46.964 12.3805 47.052 12.6805 47.052C12.9685 47.052 13.2205 46.952 13.4285 46.744L13.1485 46.468ZM15.3208 45.34C15.2568 45.232 15.1648 45.144 15.0448 45.08C14.9208 45.016 14.7888 44.984 14.6488 44.984C14.3528 44.984 14.1088 45.076 13.9168 45.26C13.7248 45.444 13.6288 45.692 13.6288 46.012C13.6288 46.34 13.7208 46.596 13.9128 46.78C14.1008 46.964 14.3448 47.056 14.6408 47.052C14.7728 47.052 14.9048 47.02 15.0328 46.956C15.1608 46.892 15.2568 46.8 15.3208 46.68L15.3408 47H15.7328V45.028H15.3328L15.3208 45.34ZM14.6808 45.36C14.7968 45.36 14.9008 45.384 14.9928 45.432C15.0848 45.48 15.1528 45.544 15.2008 45.62C15.2488 45.7 15.2808 45.784 15.3048 45.876C15.3288 45.972 15.3288 46.064 15.3048 46.156C15.2808 46.248 15.2488 46.332 15.2008 46.408C15.1528 46.488 15.0848 46.548 14.9928 46.596C14.9008 46.644 14.7968 46.668 14.6808 46.668C14.4967 46.668 14.3448 46.608 14.2248 46.488C14.1008 46.368 14.0408 46.212 14.0408 46.012C14.0408 45.816 14.1008 45.66 14.2248 45.54C14.3448 45.42 14.4967 45.36 14.6808 45.36ZM17.7837 45.24C17.5837 45.064 17.3317 44.976 17.0237 44.976C16.8077 44.976 16.6197 45.028 16.4517 45.128C16.2837 45.228 16.2037 45.376 16.2037 45.576C16.2037 45.92 16.4717 46.12 17.0077 46.168C17.1597 46.184 17.2757 46.212 17.3517 46.252C17.4277 46.292 17.4637 46.356 17.4637 46.44C17.4597 46.528 17.4157 46.592 17.3357 46.632C17.2517 46.676 17.1557 46.696 17.0437 46.696C16.7517 46.692 16.5197 46.596 16.3517 46.404L16.1357 46.696C16.3517 46.94 16.6517 47.06 17.0357 47.06C17.2877 47.06 17.4917 47.004 17.6437 46.888C17.7957 46.776 17.8717 46.624 17.8757 46.436C17.8757 46.316 17.8477 46.216 17.7997 46.132C17.7517 46.052 17.6797 45.988 17.5877 45.948C17.4957 45.908 17.4077 45.876 17.3277 45.86C17.2477 45.844 17.1517 45.828 17.0397 45.816C16.7557 45.792 16.6117 45.708 16.6117 45.564C16.6117 45.488 16.6477 45.428 16.7237 45.388C16.7997 45.348 16.9037 45.328 17.0317 45.328C17.2437 45.328 17.4157 45.392 17.5517 45.512L17.7837 45.24ZM18.2878 44.2V47H18.6998V45.972C18.6998 45.808 18.7478 45.668 18.8518 45.556C18.9558 45.444 19.0838 45.384 19.2438 45.384C19.3958 45.384 19.5198 45.432 19.6078 45.528C19.6958 45.624 19.7398 45.76 19.7398 45.94V47H20.1518V45.936C20.1518 45.648 20.0838 45.42 19.9478 45.252C19.8118 45.084 19.6078 45 19.3398 45C19.0638 45 18.8518 45.108 18.6998 45.32V44.2H18.2878ZM21.7503 45.372C21.9263 45.372 22.0743 45.432 22.1943 45.544C22.3143 45.66 22.3743 45.816 22.3743 46.012C22.3743 46.204 22.3143 46.36 22.1943 46.48C22.0743 46.6 21.9263 46.656 21.7503 46.656C21.5703 46.656 21.4183 46.596 21.2983 46.476C21.1783 46.356 21.1183 46.204 21.1183 46.012C21.1183 45.828 21.1783 45.672 21.3023 45.552C21.4223 45.432 21.5743 45.372 21.7503 45.372ZM20.6823 44.204V47H21.0703L21.0943 46.688C21.2383 46.924 21.4663 47.04 21.7783 47.04C22.0703 47.04 22.3103 46.948 22.5023 46.764C22.6903 46.58 22.7863 46.332 22.7863 46.012C22.7863 45.688 22.6903 45.436 22.5063 45.256C22.3183 45.076 22.0783 44.984 21.7863 44.984C21.6543 44.984 21.5223 45.016 21.3863 45.08C21.2503 45.144 21.1543 45.228 21.0943 45.336V44.204H20.6823ZM24.7973 45.34C24.7333 45.232 24.6413 45.144 24.5213 45.08C24.3973 45.016 24.2653 44.984 24.1253 44.984C23.8293 44.984 23.5853 45.076 23.3933 45.26C23.2013 45.444 23.1053 45.692 23.1053 46.012C23.1053 46.34 23.1973 46.596 23.3893 46.78C23.5773 46.964 23.8213 47.056 24.1173 47.052C24.2493 47.052 24.3813 47.02 24.5093 46.956C24.6373 46.892 24.7333 46.8 24.7973 46.68L24.8173 47H25.2093V45.028H24.8093L24.7973 45.34ZM24.1573 45.36C24.2733 45.36 24.3773 45.384 24.4693 45.432C24.5613 45.48 24.6293 45.544 24.6773 45.62C24.7253 45.7 24.7573 45.784 24.7813 45.876C24.8053 45.972 24.8053 46.064 24.7813 46.156C24.7573 46.248 24.7253 46.332 24.6773 46.408C24.6293 46.488 24.5613 46.548 24.4693 46.596C24.3773 46.644 24.2733 46.668 24.1573 46.668C23.9733 46.668 23.8213 46.608 23.7013 46.488C23.5773 46.368 23.5173 46.212 23.5173 46.012C23.5173 45.816 23.5773 45.66 23.7013 45.54C23.8213 45.42 23.9733 45.36 24.1573 45.36ZM27.1563 46.468C27.0363 46.592 26.8803 46.652 26.6883 46.652C26.5083 46.652 26.3603 46.596 26.2403 46.484C26.1203 46.372 26.0603 46.216 26.0603 46.016C26.0603 45.824 26.1203 45.672 26.2403 45.552C26.3603 45.432 26.5083 45.372 26.6923 45.372C26.8683 45.372 27.0163 45.432 27.1363 45.548L27.4003 45.272C27.2003 45.08 26.9643 44.98 26.6883 44.98C26.3883 44.98 26.1403 45.072 25.9443 45.252C25.7443 45.436 25.6483 45.688 25.6483 46.016C25.6483 46.344 25.7443 46.6 25.9443 46.78C26.1403 46.964 26.3883 47.052 26.6883 47.052C26.9763 47.052 27.2283 46.952 27.4363 46.744L27.1563 46.468ZM27.8034 44.204V47H28.2194V46.088L29.0634 47H29.5674V46.972L28.5994 45.956L29.4514 45.052V45.028H28.9514L28.2194 45.836V44.204H27.8034ZM29.8101 46.78C29.8101 46.888 29.8501 46.964 29.9381 47.008C30.0221 47.052 30.1061 47.052 30.1901 47.008C30.2741 46.964 30.3181 46.888 30.3181 46.78C30.3181 46.676 30.2741 46.6 30.1901 46.556C30.1061 46.516 30.0221 46.516 29.9381 46.556C29.8501 46.6 29.8101 46.676 29.8101 46.78ZM32.2188 46.468C32.0988 46.592 31.9428 46.652 31.7508 46.652C31.5708 46.652 31.4228 46.596 31.3028 46.484C31.1828 46.372 31.1228 46.216 31.1228 46.016C31.1228 45.824 31.1828 45.672 31.3028 45.552C31.4228 45.432 31.5708 45.372 31.7548 45.372C31.9308 45.372 32.0788 45.432 32.1988 45.548L32.4628 45.272C32.2628 45.08 32.0268 44.98 31.7508 44.98C31.4508 44.98 31.2028 45.072 31.0068 45.252C30.8068 45.436 30.7108 45.688 30.7108 46.016C30.7108 46.344 30.8068 46.6 31.0068 46.78C31.2028 46.964 31.4508 47.052 31.7508 47.052C32.0388 47.052 32.2908 46.952 32.4988 46.744L32.2188 46.468ZM33.7111 44.988C33.4071 44.988 33.1631 45.088 32.9751 45.28C32.7871 45.476 32.6951 45.72 32.6951 46.016C32.6951 46.312 32.7871 46.56 32.9751 46.752C33.1591 46.944 33.4071 47.04 33.7111 47.04C34.0151 47.04 34.2631 46.944 34.4511 46.752C34.6391 46.56 34.7351 46.312 34.7351 46.016C34.7351 45.724 34.6391 45.48 34.4471 45.284C34.2551 45.088 34.0111 44.988 33.7111 44.988ZM33.7111 45.368C33.8871 45.368 34.0311 45.432 34.1471 45.56C34.2591 45.688 34.3191 45.84 34.3191 46.016C34.3191 46.2 34.2631 46.352 34.1511 46.472C34.0391 46.596 33.8951 46.656 33.7111 46.656C33.5271 46.656 33.3791 46.596 33.2711 46.472C33.1591 46.352 33.1071 46.2 33.1071 46.016C33.1071 45.836 33.1591 45.684 33.2711 45.556C33.3831 45.432 33.5271 45.368 33.7111 45.368ZM36.9346 47V45.916C36.9346 45.768 36.9786 45.644 37.0666 45.54C37.1546 45.436 37.2706 45.384 37.4146 45.384C37.5546 45.384 37.6626 45.436 37.7386 45.532C37.8106 45.628 37.8506 45.756 37.8506 45.908V47H38.2666V45.908C38.2666 45.62 38.1946 45.396 38.0506 45.236C37.9066 45.076 37.6986 44.996 37.4306 44.996C37.1226 44.996 36.8986 45.128 36.7546 45.388C36.6506 45.124 36.4466 44.992 36.1346 44.992C36.0186 44.992 35.9106 45.016 35.8106 45.064C35.7106 45.112 35.6346 45.188 35.5826 45.288L35.5546 45.024H35.1706V47H35.5826V45.916C35.5826 45.768 35.6266 45.64 35.7146 45.536C35.8026 45.432 35.9146 45.38 36.0586 45.38C36.1986 45.38 36.3106 45.432 36.3946 45.536C36.4746 45.64 36.5186 45.764 36.5186 45.916V47H36.9346Z" fill="url(#paint3_linear_3270_6037)"/><g filter="url(#filter0_d_3270_6037)"><rect x="39" y="12" width="21" height="13" rx="2" fill="#F2F2F2"/></g><path d="M45.41 18.195C45.6067 18.2317 45.7733 18.3317 45.91 18.495C46.0467 18.6583 46.115 18.8483 46.115 19.065C46.115 19.2417 46.07 19.4017 45.98 19.545C45.8933 19.685 45.765 19.7967 45.595 19.88C45.425 19.96 45.2217 20 44.985 20H43.775V16.505H44.95C45.3033 16.505 45.5717 16.5867 45.755 16.75C45.9417 16.9133 46.035 17.125 46.035 17.385C46.035 17.6017 45.9767 17.7783 45.86 17.915C45.7433 18.0483 45.5933 18.1417 45.41 18.195ZM44.125 18.05H44.94C45.1767 18.05 45.3583 17.995 45.485 17.885C45.615 17.7717 45.68 17.6167 45.68 17.42C45.68 17.2267 45.615 17.075 45.485 16.965C45.3583 16.855 45.1717 16.8 44.925 16.8H44.125V18.05ZM44.96 19.705C45.2133 19.705 45.41 19.645 45.55 19.525C45.6933 19.405 45.765 19.24 45.765 19.03C45.765 18.82 45.69 18.6533 45.54 18.53C45.3933 18.4033 45.195 18.34 44.945 18.34H44.125V19.705H44.96ZM49.2284 18.495C49.2284 18.615 49.2251 18.7067 49.2184 18.77H46.9534C46.9634 18.9767 47.0134 19.1533 47.1034 19.3C47.1934 19.4467 47.3117 19.5583 47.4584 19.635C47.6051 19.7083 47.7651 19.745 47.9384 19.745C48.1651 19.745 48.3551 19.69 48.5084 19.58C48.6651 19.47 48.7684 19.3217 48.8184 19.135H49.1884C49.1217 19.4017 48.9784 19.62 48.7584 19.79C48.5417 19.9567 48.2684 20.04 47.9384 20.04C47.6817 20.04 47.4517 19.9833 47.2484 19.87C47.0451 19.7533 46.8851 19.59 46.7684 19.38C46.6551 19.1667 46.5984 18.9183 46.5984 18.635C46.5984 18.3517 46.6551 18.1033 46.7684 17.89C46.8817 17.6767 47.0401 17.5133 47.2434 17.4C47.4467 17.2867 47.6784 17.23 47.9384 17.23C48.1984 17.23 48.4251 17.2867 48.6184 17.4C48.8151 17.5133 48.9651 17.6667 49.0684 17.86C49.1751 18.05 49.2284 18.2617 49.2284 18.495ZM48.8734 18.485C48.8767 18.2817 48.8351 18.1083 48.7484 17.965C48.6651 17.8217 48.5501 17.7133 48.4034 17.64C48.2567 17.5667 48.0967 17.53 47.9234 17.53C47.6634 17.53 47.4417 17.6133 47.2584 17.78C47.0751 17.9467 46.9734 18.1817 46.9534 18.485H48.8734ZM50.3238 17.565V19.26C50.3238 19.4267 50.3554 19.5417 50.4188 19.605C50.4821 19.6683 50.5938 19.7 50.7537 19.7H51.0738V20H50.6988C50.4521 20 50.2688 19.9433 50.1488 19.83C50.0288 19.7133 49.9688 19.5233 49.9688 19.26V17.565H49.5888V17.27H49.9688V16.585H50.3238V17.27H51.0738V17.565H50.3238ZM51.491 18.63C51.491 18.35 51.546 18.105 51.656 17.895C51.7693 17.6817 51.9243 17.5183 52.121 17.405C52.321 17.2883 52.546 17.23 52.796 17.23C53.056 17.23 53.2793 17.29 53.466 17.41C53.656 17.53 53.7926 17.6833 53.876 17.87V17.27H54.226V20H53.876V19.395C53.7893 19.5817 53.651 19.7367 53.461 19.86C53.2743 19.98 53.051 20.04 52.791 20.04C52.5443 20.04 52.321 19.9817 52.121 19.865C51.9243 19.7483 51.7693 19.5833 51.656 19.37C51.546 19.1567 51.491 18.91 51.491 18.63ZM53.876 18.635C53.876 18.415 53.831 18.2217 53.741 18.055C53.651 17.8883 53.5276 17.76 53.371 17.67C53.2176 17.58 53.0476 17.535 52.861 17.535C52.6676 17.535 52.4943 17.5783 52.341 17.665C52.1876 17.7517 52.066 17.8783 51.976 18.045C51.8893 18.2083 51.846 18.4033 51.846 18.63C51.846 18.8533 51.8893 19.05 51.976 19.22C52.066 19.3867 52.1876 19.515 52.341 19.605C52.4943 19.6917 52.6676 19.735 52.861 19.735C53.0476 19.735 53.2176 19.69 53.371 19.6C53.5276 19.51 53.651 19.3817 53.741 19.215C53.831 19.0483 53.876 18.855 53.876 18.635Z" fill="black"/><defs><filter id="filter0_d_3270_6037" x="23" y="0" width="53" height="45" filterUnits="userSpaceOnUse" color-interpolation-filters="sRGB"><feFlood flood-opacity="0" result="BackgroundImageFix"/><feColorMatrix in="SourceAlpha" type="matrix" values="0 0 0 0 0 0 0 0 0 0 0 0 0 0 0 0 0 0 127 0" result="hardAlpha"/><feOffset dy="4"/><feGaussianBlur stdDeviation="8"/><feComposite in2="hardAlpha" operator="out"/><feColorMatrix type="matrix" values="0 0 0 0 0 0 0 0 0 0 0 0 0 0 0 0 0 0 0.04 0"/><feBlend mode="normal" in2="BackgroundImageFix" result="effect1_dropShadow_3270_6037"/><feBlend mode="normal" in="SourceGraphic" in2="effect1_dropShadow_3270_6037" result="shape"/></filter><linearGradient id="paint0_linear_3270_6037" x1="2.4563" y1="12.5" x2="29.9407" y2="38.6424" gradientUnits="userSpaceOnUse"><stop stop-color="white"/><stop offset="1" stop-color="#EDECEE"/></linearGradient><linearGradient id="paint1_linear_3270_6037" x1="1.12883" y1="14.6286" x2="5.75583" y2="17.8232" gradientUnits="userSpaceOnUse"><stop stop-color="white"/><stop offset="1" stop-color="#EDECEE"/></linearGradient><linearGradient id="paint2_linear_3270_6037" x1="6" y1="44" x2="6" y2="49" gradientUnits="userSpaceOnUse"><stop stop-color="white"/><stop offset="1" stop-color="#E2E2E2"/></linearGradient><linearGradient id="paint3_linear_3270_6037" x1="25" y1="44" x2="25" y2="49" gradientUnits="userSpaceOnUse"><stop stop-color="white"/><stop offset="1" stop-color="#E2E2E2"/></linearGradient></defs></svg>