<svg width="37" height="26" viewBox="0 0 37 26" fill="none" xmlns="http://www.w3.org/2000/svg">
<g id="&#226;&#157;&#151;&#239;&#184;&#143; Group 7">
<path id="&#226;&#157;&#151;&#239;&#184;&#143; Vector" d="M32.3927 8.14809C30.6689 6.82931 28.5581 6.11627 26.3877 6.11959C25.7477 6.11952 25.1092 6.18109 24.481 6.30344C22.9432 6.60388 21.4992 7.2665 20.2686 8.23638C20.2351 8.26264 20.2021 8.29226 20.1692 8.31629V3.68818C20.1457 2.7474 19.7724 1.84915 19.1221 1.16889C18.4718 0.488638 17.5913 0.0752558 16.6525 0.00949986C16.5659 0.00335289 16.4771 0 16.3888 0V16.9723C16.3227 17.3324 16.2239 17.6858 16.0937 18.0279C15.6649 19.1596 14.9111 20.1393 13.9272 20.8438C13.0371 21.481 11.9924 21.8678 10.902 21.9636C9.81151 22.0594 8.71533 21.8609 7.72777 21.3887C6.74021 20.9165 5.89746 20.1879 5.28744 19.279C4.67743 18.3701 4.3225 17.3141 4.25968 16.2213C4.25633 16.1906 4.25354 16.1241 4.2513 16.0536V15.7374C4.25465 15.6194 4.26024 15.5027 4.26918 15.3864C4.34407 14.4467 4.63494 13.537 5.11912 12.7282C5.60329 11.9194 6.2677 11.2333 7.06057 10.7234C7.85343 10.2135 8.75333 9.89356 9.69013 9.78854C10.6269 9.68351 11.5753 9.79623 12.4614 10.1179C12.9096 8.9321 13.7141 7.91423 14.7643 7.20425C13.9562 6.78972 13.0948 6.48884 12.2044 6.31014C10.8243 6.03473 9.40146 6.05603 8.03027 6.37262C6.65908 6.68921 5.37092 7.29385 4.2513 8.14641V6.19838H0.469238V26C1.21829 26.0004 1.9506 25.7784 2.57336 25.3621C3.19612 24.9459 3.6813 24.3542 3.96742 23.6619C4.05981 23.7402 4.15407 23.8171 4.25018 23.8927C5.97347 25.2102 8.08318 25.9226 10.2524 25.9195C10.9061 25.9196 11.5582 25.8554 12.1993 25.7279C13.7281 25.4222 15.1626 24.7582 16.3849 23.7904L16.4117 23.7692C17.1379 23.1909 17.7795 22.5138 18.3178 21.7575L18.3256 21.7675C18.3446 21.7407 18.3642 21.7117 18.3815 21.6854C18.4933 21.53 18.5967 21.3708 18.6944 21.2093C18.7168 21.1735 18.7403 21.1377 18.7615 21.1009C18.9209 20.8364 19.0674 20.5644 19.2007 20.285C19.2315 20.2207 19.2611 20.1559 19.2913 20.0911C19.3214 20.0263 19.3527 19.9519 19.3823 19.8821C19.4516 19.7195 19.517 19.5546 19.5763 19.3881C19.6003 19.3233 19.6221 19.2579 19.6455 19.192C19.6707 19.1148 19.6958 19.0377 19.7199 18.96C19.7439 18.8824 19.7679 18.8053 19.7897 18.7265C19.8115 18.6477 19.8339 18.5694 19.8534 18.4906C19.873 18.4118 19.8914 18.3364 19.9093 18.2593C19.93 18.1699 19.9484 18.0805 19.9652 17.9899C19.9803 17.9167 19.9948 17.843 20.0071 17.7664C20.0194 17.6899 20.0362 17.6032 20.0479 17.5211C20.0479 17.5161 20.0507 17.511 20.0518 17.5054C20.0613 17.4289 20.0725 17.3523 20.0825 17.2747C20.0926 17.197 20.1032 17.107 20.1105 17.026C20.1278 16.8695 20.1384 16.7119 20.1485 16.5543C20.1485 16.5331 20.1485 16.5113 20.1485 16.4895C20.1491 16.4866 20.1491 16.4835 20.1485 16.4806C20.1518 16.4158 20.153 16.3526 20.1552 16.2872C20.1552 16.2721 20.1552 16.2571 20.1552 16.2414C20.1552 16.2068 20.158 16.1716 20.158 16.1375V15.4568C20.267 13.8759 20.9851 12.399 22.161 11.3368C23.337 10.2746 24.8792 9.71011 26.463 9.76203C28.0468 9.81394 29.5487 10.4783 30.6526 11.6152C31.7565 12.7521 32.3763 14.2729 32.3815 15.8575V15.8832C32.3797 17.0008 32.0718 18.0965 31.4911 19.0514C30.9105 20.0063 30.0793 20.7838 29.0879 21.2996C28.0965 21.8155 26.9827 22.0498 25.8675 21.9772C24.7523 21.9046 23.6783 21.5279 22.7621 20.888C22.1283 22.0132 21.2814 23.0042 20.2686 23.8055C21.4993 24.7752 22.9433 25.4378 24.481 25.7385C25.1092 25.8608 25.7477 25.9224 26.3877 25.9223C29.0107 25.9225 31.5267 24.8817 33.383 23.0285C35.2394 21.1752 36.2845 18.6611 36.2887 16.038V15.9994C36.2868 14.4793 35.9342 12.9801 35.2585 11.6183C34.5828 10.2566 33.6021 9.06909 32.3927 8.14809Z" fill="url(#paint0_linear_823_35864)"/>
<path id="&#226;&#157;&#151;&#239;&#184;&#143; Vector_2" d="M2.33752 4.75317C2.79984 4.75317 3.25178 4.61608 3.63618 4.35923C4.02059 4.10238 4.32019 3.73731 4.49712 3.31018C4.67404 2.88306 4.72033 2.41306 4.63013 1.95962C4.53994 1.50619 4.31731 1.08968 3.9904 0.762771C3.6635 0.435862 3.24699 0.213235 2.79355 0.123041C2.34012 0.032847 1.87012 0.0791378 1.44299 0.25606C1.01587 0.432981 0.650795 0.732588 0.393944 1.11699C0.137093 1.5014 6.68341e-08 1.95333 6.68341e-08 2.41565C-7.33491e-05 2.72264 0.0603384 3.02663 0.177784 3.31027C0.29523 3.5939 0.467408 3.85162 0.684481 4.06869C0.901555 4.28577 1.15927 4.45795 1.44291 4.57539C1.72654 4.69284 2.03054 4.75325 2.33752 4.75317Z" fill="url(#paint1_linear_823_35864)"/>
</g>
<defs>
<linearGradient id="paint0_linear_823_35864" x1="1.4563" y1="-2.5" x2="28.9407" y2="23.6424" gradientUnits="userSpaceOnUse">
<stop stop-color="white"/>
<stop offset="1" stop-color="#EDECEE"/>
</linearGradient>
<linearGradient id="paint1_linear_823_35864" x1="0.128829" y1="-0.371399" x2="4.75583" y2="2.82317" gradientUnits="userSpaceOnUse">
<stop stop-color="white"/>
<stop offset="1" stop-color="#EDECEE"/>
</linearGradient>
</defs>
</svg>
