<svg width="53" height="23" viewBox="0 0 53 23" fill="none" xmlns="http://www.w3.org/2000/svg">
<path d="M50.592 0H2.41469C1.61646 0 0.96936 0.643591 0.96936 1.4375V21.5625C0.96936 22.3564 1.61646 23 2.41469 23H50.592C51.3902 23 52.0373 22.3564 52.0373 21.5625V1.4375C52.0373 0.643591 51.3902 0 50.592 0Z" fill="white"/>
<path d="M20.6591 10.0909V13H20.3182L18.733 10.7159H18.7045V13H18.3523V10.0909H18.6932L20.2841 12.3807H20.3125V10.0909H20.6591ZM21.364 13V10.0909H23.1197V10.4034H21.7163V11.3864H23.0288V11.6989H21.7163V12.6875H23.1424V13H21.364ZM23.5955 10.4034V10.0909H25.7773V10.4034H24.8626V13H24.5103V10.4034H23.5955ZM27.446 13V10.0909H28.4631C28.6657 10.0909 28.8329 10.1259 28.9645 10.196C29.0961 10.2652 29.1941 10.3584 29.2585 10.4759C29.3229 10.5923 29.3551 10.7216 29.3551 10.8636C29.3551 10.9886 29.3329 11.0919 29.2884 11.1733C29.2448 11.2547 29.187 11.3191 29.1151 11.3665C29.044 11.4138 28.9669 11.4489 28.8835 11.4716V11.5C28.9725 11.5057 29.062 11.5369 29.152 11.5938C29.242 11.6506 29.3172 11.732 29.3778 11.8381C29.4384 11.9441 29.4688 12.0739 29.4688 12.2273C29.4688 12.3731 29.4356 12.5043 29.3693 12.6207C29.303 12.7372 29.1984 12.8295 29.0554 12.8977C28.9124 12.9659 28.7263 13 28.4972 13H27.446ZM27.7983 12.6875H28.4972C28.7273 12.6875 28.8906 12.643 28.9872 12.554C29.0848 12.464 29.1335 12.3551 29.1335 12.2273C29.1335 12.1288 29.1084 12.0379 29.0582 11.9545C29.008 11.8703 28.9366 11.803 28.8438 11.7528C28.7509 11.7017 28.6411 11.6761 28.5142 11.6761H27.7983V12.6875ZM27.7983 11.3693H28.4517C28.5578 11.3693 28.6534 11.3485 28.7386 11.3068C28.8248 11.2652 28.893 11.2064 28.9432 11.1307C28.9943 11.0549 29.0199 10.9659 29.0199 10.8636C29.0199 10.7358 28.9754 10.6274 28.8864 10.5384C28.7973 10.4484 28.6563 10.4034 28.4631 10.4034H27.7983V11.3693ZM30.1669 13H29.7976L30.8658 10.0909H31.2294L32.2976 13H31.9283L31.0589 10.5511H31.0362L30.1669 13ZM30.3033 11.8636H31.7919V12.1761H30.3033V11.8636ZM35.0575 10.0909V13H34.7166L33.1314 10.7159H33.103V13H32.7507V10.0909H33.0916L34.6825 12.3807H34.7109V10.0909H35.0575ZM35.7624 13V10.0909H36.1147V11.5341H36.1488L37.4556 10.0909H37.9158L36.6942 11.4034L37.9158 13H37.4897L36.4783 11.6477L36.1147 12.0568V13H35.7624ZM38.7241 10.0909V13H38.3718V10.0909H38.7241ZM41.7372 10.0909V13H41.3963L39.8111 10.7159H39.7827V13H39.4304V10.0909H39.7713L41.3622 12.3807H41.3906V10.0909H41.7372ZM44.4308 11C44.3995 10.9044 44.3583 10.8187 44.3072 10.7429C44.257 10.6662 44.1969 10.6009 44.1268 10.5469C44.0576 10.4929 43.979 10.4517 43.891 10.4233C43.8029 10.3949 43.7063 10.3807 43.6012 10.3807C43.4289 10.3807 43.2721 10.4252 43.131 10.5142C42.9899 10.6032 42.8777 10.7344 42.7944 10.9077C42.7111 11.081 42.6694 11.2936 42.6694 11.5455C42.6694 11.7973 42.7115 12.0099 42.7958 12.1832C42.8801 12.3565 42.9942 12.4877 43.1381 12.5767C43.2821 12.6657 43.444 12.7102 43.6239 12.7102C43.7906 12.7102 43.9374 12.6747 44.0643 12.6037C44.1921 12.5317 44.2915 12.4304 44.3626 12.2997C44.4345 12.1681 44.4705 12.0133 44.4705 11.8352L44.5785 11.858H43.7035V11.5455H44.8114V11.858C44.8114 12.0975 44.7603 12.3059 44.658 12.483C44.5567 12.66 44.4165 12.7973 44.2376 12.8949C44.0595 12.9915 43.855 13.0398 43.6239 13.0398C43.3664 13.0398 43.14 12.9792 42.945 12.858C42.7508 12.7367 42.5993 12.5644 42.4904 12.3409C42.3825 12.1174 42.3285 11.8523 42.3285 11.5455C42.3285 11.3153 42.3593 11.1084 42.4208 10.9247C42.4833 10.7401 42.5714 10.5829 42.685 10.4531C42.7987 10.3234 42.9331 10.224 43.0884 10.1548C43.2437 10.0857 43.4147 10.0511 43.6012 10.0511C43.7546 10.0511 43.8976 10.0743 44.0302 10.1207C44.1637 10.1662 44.2826 10.2311 44.3867 10.3153C44.4918 10.3987 44.5794 10.4986 44.6495 10.6151C44.7196 10.7306 44.7679 10.8589 44.7944 11H44.4308Z" fill="#4E4E4E"/>
<path d="M9.87838 4.36997C10.63 4.36997 11.2471 4.99959 11.2471 5.77009V7.18747C13.0393 7.34559 14.4384 8.87509 14.4384 10.7539V14.4914C14.4384 16.4766 12.8789 18.0751 10.9421 18.0751C9.0054 18.0751 7.44733 16.4766 7.44733 14.4928V10.7553C7.44733 8.87509 8.84642 7.34415 10.6386 7.18747V5.77009C10.6411 5.6691 10.6233 5.56863 10.5863 5.47456C10.5492 5.3805 10.4937 5.29474 10.4229 5.2223C10.3521 5.14987 10.2674 5.09223 10.1739 5.05275C10.0804 5.01327 9.97996 4.99276 9.87838 4.99241C9.44189 4.99241 9.13404 5.29428 9.11814 5.78015L9.10947 6.09209C9.0849 6.87265 8.48508 7.48359 7.74074 7.48359C6.98916 7.48359 6.38212 6.84965 6.38212 6.08203C6.38122 6.02729 6.39476 5.97326 6.42139 5.92534C6.44802 5.87742 6.4868 5.83728 6.53388 5.8089C6.58011 5.78113 6.63308 5.76645 6.68709 5.76645C6.74109 5.76645 6.79407 5.78113 6.84029 5.8089C6.93424 5.8664 6.99205 5.96991 6.99061 6.08203C6.99061 6.52334 7.31436 6.86115 7.74218 6.86115C8.17723 6.86115 8.48653 6.55784 8.50098 6.07197L8.5111 5.76147C8.53567 4.98091 9.13548 4.36853 9.87838 4.36853V4.36997ZM10.9421 8.72847C10.8814 8.7294 10.8215 8.74223 10.7657 8.76622C10.7099 8.79021 10.6595 8.82488 10.6172 8.86826C10.5749 8.91165 10.5417 8.96289 10.5193 9.01906C10.4969 9.07524 10.4859 9.13524 10.4869 9.19565V10.7525C10.4869 11.0112 10.6892 11.2197 10.9421 11.2197C11.003 11.2189 11.0631 11.2062 11.119 11.1823C11.175 11.1584 11.2256 11.1238 11.268 11.0804C11.3105 11.037 11.3439 10.9857 11.3663 10.9294C11.3888 10.8731 11.3998 10.813 11.3989 10.7525V9.19709C11.3998 9.13656 11.3888 9.07644 11.3663 9.02017C11.3439 8.96391 11.3105 8.9126 11.268 8.8692C11.2256 8.8258 11.175 8.79115 11.119 8.76725C11.0631 8.74334 11.003 8.73065 10.9421 8.7299V8.72847Z" fill="black"/>
</svg>
