<svg width="48" height="23" viewBox="0 0 48 23" fill="none" xmlns="http://www.w3.org/2000/svg">
<path d="M45.7959 0H2.43593C1.6377 0 0.990601 0.643591 0.990601 1.4375V21.5625C0.990601 22.3564 1.6377 23 2.43593 23H45.7959C46.5942 23 47.2413 22.3564 47.2413 21.5625V1.4375C47.2413 0.643591 46.5942 0 45.7959 0Z" fill="white"/>
<path d="M18.521 18.6875C22.5553 18.6875 25.8257 15.4695 25.8257 11.5C25.8257 7.53045 22.5553 4.3125 18.521 4.3125C14.4867 4.3125 11.2163 7.53045 11.2163 11.5C11.2163 15.4695 14.4867 18.6875 18.521 18.6875Z" fill="#007BDB"/>
<path d="M28.7467 18.6875C32.781 18.6875 36.0514 15.4695 36.0514 11.5C36.0514 7.53045 32.781 4.3125 28.7467 4.3125C24.7124 4.3125 21.442 7.53045 21.442 11.5C21.442 15.4695 24.7124 18.6875 28.7467 18.6875Z" fill="#E42B00"/>
<path fill-rule="evenodd" clip-rule="evenodd" d="M23.6331 16.6463C23.6331 16.6463 25.8257 14.3419 25.8257 11.5C25.8257 8.65807 23.6317 6.35376 23.6317 6.35376C23.6317 6.35376 21.442 8.1147 21.442 11.5C21.442 14.8853 23.6331 16.6463 23.6331 16.6463Z" fill="#1740CE"/>
</svg>
