<svg width="48" height="23" viewBox="0 0 48 23" fill="none" xmlns="http://www.w3.org/2000/svg">
<path d="M45.792 0H2.43203C1.63379 0 0.986694 0.643591 0.986694 1.4375V21.5625C0.986694 22.3564 1.63379 23 2.43203 23H45.792C46.5903 23 47.2374 22.3564 47.2374 21.5625V1.4375C47.2374 0.643591 46.5903 0 45.792 0Z" fill="white"/>
<path fill-rule="evenodd" clip-rule="evenodd" d="M35.6776 7.1875L34.3956 8.50281L33.1988 7.1875H21.402L20.3888 9.41131L19.3497 7.1875H14.6234V8.1995L14.0988 7.1875H10.0562L6.10028 15.801H10.8381L11.4249 14.4282H12.7676L13.3544 15.801H18.5692V14.7531L19.0317 15.8024H21.7316L22.1941 14.7301V15.801H33.0399L34.358 14.4627L35.5923 15.801L41.1612 15.8125L37.1923 11.5173L41.1612 7.1875H35.6776ZM36.3497 8.40937H38.2546L35.3596 11.5173L38.2546 14.5906H36.2629L34.3594 12.5422L32.3822 14.5906H26.2511V8.40937H32.4805L34.384 10.4363L36.3511 8.40937H36.3497ZM22.3299 8.40937H24.8448V14.5906H23.3185L23.307 9.74769L21.0725 14.5906H19.7038L17.4577 9.74625V14.5892H14.3069L13.7085 13.2034H10.4825L9.88416 14.5892H8.20035L10.9725 8.40794H13.2807L15.9069 14.2514V8.40937H18.4333L20.4611 12.5997L22.3299 8.40937ZM11.0332 11.9255H13.1578L12.0955 9.45731L11.0332 11.9255ZM27.789 9.68875V10.8172H31.184V12.075H27.7875V13.3084H31.5989L33.3694 11.4928L31.6711 9.68875H27.789Z" fill="#1CA9E1"/>
</svg>
