<svg width="52" height="23" viewBox="0 0 52 23" fill="none" xmlns="http://www.w3.org/2000/svg">
<path d="M50.0719 0H1.89461C1.09638 0 0.44928 0.643591 0.44928 1.4375V21.5625C0.44928 22.3564 1.09638 23 1.89461 23H50.0719C50.8701 23 51.5172 22.3564 51.5172 21.5625V1.4375C51.5172 0.643591 50.8701 0 50.0719 0Z" fill="white"/>
<path d="M21.3523 11V8.09091H23.108V8.40341H21.7045V9.38636H23.017V9.69886H21.7045V10.6875H23.1307V11H21.3523ZM23.8622 11H23.4929L24.5611 8.09091H24.9247L25.9929 11H25.6236L24.7543 8.55114H24.7315L23.8622 11ZM23.9986 9.86364H25.4872V10.1761H23.9986V9.86364ZM28.0369 8.81818C28.0199 8.67424 27.9508 8.5625 27.8295 8.48295C27.7083 8.40341 27.5597 8.36364 27.3835 8.36364C27.2547 8.36364 27.142 8.38447 27.0455 8.42614C26.9498 8.4678 26.875 8.52509 26.821 8.59801C26.768 8.67093 26.7415 8.75379 26.7415 8.84659C26.7415 8.92424 26.7599 8.991 26.7969 9.04688C26.8348 9.1018 26.883 9.14773 26.9418 9.18466C27.0005 9.22064 27.062 9.25047 27.1264 9.27415C27.1908 9.29687 27.25 9.31534 27.304 9.32955L27.5994 9.40909C27.6752 9.42898 27.7595 9.45644 27.8523 9.49148C27.946 9.52652 28.0355 9.57434 28.1207 9.63494C28.2069 9.6946 28.2779 9.77131 28.3338 9.86506C28.3897 9.95881 28.4176 10.0739 28.4176 10.2102C28.4176 10.3674 28.3764 10.5095 28.294 10.6364C28.2126 10.7633 28.0933 10.8641 27.9361 10.9389C27.7798 11.0137 27.59 11.0511 27.3665 11.0511C27.1581 11.0511 26.9777 11.0175 26.8253 10.9503C26.6738 10.883 26.5545 10.7893 26.4673 10.669C26.3812 10.5488 26.3324 10.4091 26.321 10.25H26.6847C26.6941 10.3598 26.7311 10.4508 26.7955 10.5227C26.8608 10.5937 26.9432 10.6468 27.0426 10.6818C27.143 10.7159 27.2509 10.733 27.3665 10.733C27.5009 10.733 27.6217 10.7112 27.7287 10.6676C27.8357 10.6231 27.9205 10.5616 27.983 10.483C28.0455 10.4034 28.0767 10.3106 28.0767 10.2045C28.0767 10.108 28.0497 10.0294 27.9957 9.96875C27.9418 9.90814 27.8707 9.8589 27.7827 9.82102C27.6946 9.78314 27.5994 9.75 27.4972 9.72159L27.1392 9.61932C26.9119 9.55398 26.732 9.4607 26.5994 9.33949C26.4669 9.21828 26.4006 9.05966 26.4006 8.86364C26.4006 8.70076 26.4446 8.55871 26.5327 8.4375C26.6217 8.31534 26.741 8.22064 26.8906 8.15341C27.0412 8.08523 27.2093 8.05114 27.3949 8.05114C27.5824 8.05114 27.7491 8.08475 27.8949 8.15199C28.0407 8.21828 28.1563 8.30919 28.2415 8.42472C28.3277 8.54025 28.3731 8.6714 28.3778 8.81818H28.0369ZM28.7468 8.09091H29.1502L29.957 9.44886H29.9911L30.7979 8.09091H31.2013L30.1502 9.80114V11H29.7979V9.80114L28.7468 8.09091ZM21.3523 16V13.0909H23.108V13.4034H21.7045V14.3864H23.017V14.6989H21.7045V15.6875H23.1307V16H21.3523ZM23.7429 13.0909H24.1634L25.152 15.5057H25.1861L26.1747 13.0909H26.5952V16H26.2656V13.7898H26.2372L25.3281 16H25.0099L24.1009 13.7898H24.0724V16H23.7429V13.0909ZM27.6538 13.0909V16H27.3015V13.0909H27.6538ZM30.8146 14.5455C30.8146 14.8523 30.7592 15.1174 30.6484 15.3409C30.5376 15.5644 30.3857 15.7367 30.1925 15.858C29.9993 15.9792 29.7786 16.0398 29.5305 16.0398C29.2824 16.0398 29.0618 15.9792 28.8686 15.858C28.6754 15.7367 28.5234 15.5644 28.4126 15.3409C28.3018 15.1174 28.2464 14.8523 28.2464 14.5455C28.2464 14.2386 28.3018 13.9735 28.4126 13.75C28.5234 13.5265 28.6754 13.3542 28.8686 13.233C29.0618 13.1117 29.2824 13.0511 29.5305 13.0511C29.7786 13.0511 29.9993 13.1117 30.1925 13.233C30.3857 13.3542 30.5376 13.5265 30.6484 13.75C30.7592 13.9735 30.8146 14.2386 30.8146 14.5455ZM30.4737 14.5455C30.4737 14.2936 30.4316 14.081 30.3473 13.9077C30.264 13.7344 30.1508 13.6032 30.0078 13.5142C29.8658 13.4252 29.7067 13.3807 29.5305 13.3807C29.3544 13.3807 29.1948 13.4252 29.0518 13.5142C28.9098 13.6032 28.7966 13.7344 28.7124 13.9077C28.629 14.081 28.5874 14.2936 28.5874 14.5455C28.5874 14.7973 28.629 15.0099 28.7124 15.1832C28.7966 15.3565 28.9098 15.4877 29.0518 15.5767C29.1948 15.6657 29.3544 15.7102 29.5305 15.7102C29.7067 15.7102 29.8658 15.6657 30.0078 15.5767C30.1508 15.4877 30.264 15.3565 30.3473 15.1832C30.4316 15.0099 30.4737 14.7973 30.4737 14.5455ZM31.407 16V13.0909H32.3899C32.6181 13.0909 32.8047 13.1321 32.9496 13.2145C33.0954 13.2959 33.2034 13.4062 33.2734 13.5455C33.3435 13.6847 33.3786 13.84 33.3786 14.0114C33.3786 14.1828 33.3435 14.3385 33.2734 14.4787C33.2043 14.6188 33.0973 14.7306 32.9524 14.8139C32.8075 14.8963 32.6219 14.9375 32.3956 14.9375H31.6911V14.625H32.3842C32.5405 14.625 32.666 14.598 32.7607 14.544C32.8554 14.4901 32.924 14.4171 32.9666 14.3253C33.0102 14.2325 33.032 14.1278 33.032 14.0114C33.032 13.8949 33.0102 13.7907 32.9666 13.6989C32.924 13.607 32.8549 13.535 32.7592 13.483C32.6636 13.4299 32.5367 13.4034 32.3786 13.4034H31.7592V16H31.407ZM33.7869 13.4034V13.0909H35.9688V13.4034H35.054V16H34.7017V13.4034H33.7869ZM36.8647 13.0909V16H36.5124V13.0909H36.8647ZM40.0256 14.5455C40.0256 14.8523 39.9702 15.1174 39.8594 15.3409C39.7486 15.5644 39.5966 15.7367 39.4034 15.858C39.2102 15.9792 38.9896 16.0398 38.7415 16.0398C38.4934 16.0398 38.2727 15.9792 38.0795 15.858C37.8864 15.7367 37.7344 15.5644 37.6236 15.3409C37.5128 15.1174 37.4574 14.8523 37.4574 14.5455C37.4574 14.2386 37.5128 13.9735 37.6236 13.75C37.7344 13.5265 37.8864 13.3542 38.0795 13.233C38.2727 13.1117 38.4934 13.0511 38.7415 13.0511C38.9896 13.0511 39.2102 13.1117 39.4034 13.233C39.5966 13.3542 39.7486 13.5265 39.8594 13.75C39.9702 13.9735 40.0256 14.2386 40.0256 14.5455ZM39.6847 14.5455C39.6847 14.2936 39.6425 14.081 39.5582 13.9077C39.4749 13.7344 39.3617 13.6032 39.2188 13.5142C39.0767 13.4252 38.9176 13.3807 38.7415 13.3807C38.5653 13.3807 38.4058 13.4252 38.2628 13.5142C38.1207 13.6032 38.0076 13.7344 37.9233 13.9077C37.84 14.081 37.7983 14.2936 37.7983 14.5455C37.7983 14.7973 37.84 15.0099 37.9233 15.1832C38.0076 15.3565 38.1207 15.4877 38.2628 15.5767C38.4058 15.6657 38.5653 15.7102 38.7415 15.7102C38.9176 15.7102 39.0767 15.6657 39.2188 15.5767C39.3617 15.4877 39.4749 15.3565 39.5582 15.1832C39.6425 15.0099 39.6847 14.7973 39.6847 14.5455ZM42.9247 13.0909V16H42.5838L40.9986 13.7159H40.9702V16H40.6179V13.0909H40.9588L42.5497 15.3807H42.5781V13.0909H42.9247ZM45.2205 13.8182C45.2035 13.6742 45.1344 13.5625 45.0131 13.483C44.8919 13.4034 44.7433 13.3636 44.5671 13.3636C44.4383 13.3636 44.3256 13.3845 44.229 13.4261C44.1334 13.4678 44.0586 13.5251 44.0046 13.598C43.9516 13.6709 43.9251 13.7538 43.9251 13.8466C43.9251 13.9242 43.9435 13.991 43.9805 14.0469C44.0183 14.1018 44.0666 14.1477 44.1254 14.1847C44.1841 14.2206 44.2456 14.2505 44.31 14.2741C44.3744 14.2969 44.4336 14.3153 44.4876 14.3295L44.783 14.4091C44.8588 14.429 44.9431 14.4564 45.0359 14.4915C45.1296 14.5265 45.2191 14.5743 45.3043 14.6349C45.3905 14.6946 45.4615 14.7713 45.5174 14.8651C45.5733 14.9588 45.6012 15.0739 45.6012 15.2102C45.6012 15.3674 45.56 15.5095 45.4776 15.6364C45.3962 15.7633 45.2769 15.8641 45.1197 15.9389C44.9634 16.0137 44.7736 16.0511 44.5501 16.0511C44.3417 16.0511 44.1613 16.0175 44.0089 15.9503C43.8574 15.883 43.738 15.7893 43.6509 15.669C43.5647 15.5488 43.516 15.4091 43.5046 15.25H43.8683C43.8777 15.3598 43.9147 15.4508 43.979 15.5227C44.0444 15.5937 44.1268 15.6468 44.2262 15.6818C44.3266 15.7159 44.4345 15.733 44.5501 15.733C44.6845 15.733 44.8053 15.7112 44.9123 15.6676C45.0193 15.6231 45.104 15.5616 45.1665 15.483C45.229 15.4034 45.2603 15.3106 45.2603 15.2045C45.2603 15.108 45.2333 15.0294 45.1793 14.9688C45.1254 14.9081 45.0543 14.8589 44.9663 14.821C44.8782 14.7831 44.783 14.75 44.6808 14.7216L44.3228 14.6193C44.0955 14.554 43.9156 14.4607 43.783 14.3395C43.6504 14.2183 43.5842 14.0597 43.5842 13.8636C43.5842 13.7008 43.6282 13.5587 43.7163 13.4375C43.8053 13.3153 43.9246 13.2206 44.0742 13.1534C44.2248 13.0852 44.3929 13.0511 44.5785 13.0511C44.766 13.0511 44.9326 13.0848 45.0785 13.152C45.2243 13.2183 45.3398 13.3092 45.4251 13.4247C45.5112 13.5402 45.5567 13.6714 45.5614 13.8182H45.2205Z" fill="#4E4E4E"/>
<path fill-rule="evenodd" clip-rule="evenodd" d="M13.6293 6.96038V5.75H12.4947V6.96038H7.95493V5.75H6.82034V6.96038H6.25232C5.62216 6.96038 5.12352 7.50663 5.12352 8.17075L5.11774 16.0396C5.11774 16.7038 5.6236 17.25 6.25232 17.25H14.1959C14.8203 17.25 15.3319 16.7052 15.3319 16.0396V8.17075C15.3319 7.50519 14.8203 6.96038 14.1959 6.96038H13.6308H13.6293ZM6.25232 16.0396V9.38113H14.1959V16.0396H6.25232V16.0396Z" fill="#212121"/>
<path d="M8.47557 11.5C8.92911 11.5 9.29678 11.1323 9.29678 10.6786C9.29678 10.2249 8.92911 9.85718 8.47557 9.85718C8.02203 9.85718 7.65436 10.2249 7.65436 10.6786C7.65436 11.1323 8.02203 11.5 8.47557 11.5Z" fill="#212121"/>
<path d="M11.7604 14.7857C12.214 14.7857 12.5816 14.4179 12.5816 13.9643C12.5816 13.5106 12.214 13.1428 11.7604 13.1428C11.3069 13.1428 10.9392 13.5106 10.9392 13.9643C10.9392 14.4179 11.3069 14.7857 11.7604 14.7857Z" fill="#212121"/>
<path d="M11.1881 10.8948L8.80768 14.5705" stroke="#212121" stroke-width="0.632" stroke-linecap="square"/>
</svg>
