<svg width="48" height="23" viewBox="0 0 48 23" fill="none" xmlns="http://www.w3.org/2000/svg">
<path d="M45.7787 0H2.41872C1.62049 0 0.973389 0.643591 0.973389 1.4375V21.5625C0.973389 22.3564 1.62049 23 2.41872 23H45.7787C46.577 23 47.2241 22.3564 47.2241 21.5625V1.4375C47.2241 0.643591 46.577 0 45.7787 0Z" fill="white"/>
<path opacity="0.938" fill-rule="evenodd" clip-rule="evenodd" d="M7.25043 13.8575C7.21719 13.8345 7.44845 12.9634 7.99912 11.0328C8.43705 9.49759 8.84897 8.06009 8.91401 7.84159L9.03253 7.43909L10.7539 7.47071C12.7658 7.50665 13.0751 7.53396 13.3989 7.69352C13.9727 7.97815 14.1302 8.41659 13.9337 9.17415C13.7646 9.81959 13.4422 10.258 12.8207 10.6921C12.7037 10.7741 12.5996 10.8747 12.5924 10.915C12.5837 10.961 12.656 11.0601 12.7803 11.1708C12.893 11.2715 13.0115 11.4037 13.0448 11.467C13.1344 11.638 13.1185 11.9801 12.9942 12.5724C12.9307 12.8767 12.8848 13.1843 12.8569 13.4938L12.8323 13.8891H11.9984C11.4087 13.8891 11.1514 13.8748 11.1138 13.8374C11.0329 13.7583 11.0502 13.5542 11.1919 12.972C11.3494 12.3251 11.3581 12.0693 11.2323 11.9111C11.0632 11.7027 10.9115 11.6567 10.3102 11.638C9.82313 11.6222 9.74219 11.6294 9.66848 11.6955C9.5543 11.7961 9.46179 12.0578 9.19007 13.0468L8.95882 13.8891H8.12775C7.67103 13.8891 7.27501 13.8748 7.24899 13.8561L7.25043 13.8575ZM11.6298 10.2393C12.0244 10.1243 12.192 9.87134 12.192 9.38546C12.192 9.23884 12.1675 9.13677 12.1169 9.0764C11.9955 8.93409 11.6341 8.88665 10.9563 8.92115L10.3666 8.95277L10.2799 9.23596C10.1483 9.67296 10.0558 10.097 10.0703 10.1962C10.079 10.2623 10.1252 10.2954 10.235 10.3155C10.4764 10.363 11.3769 10.3126 11.6298 10.2393ZM14.4193 13.9811C14.1548 13.8891 13.9481 13.7166 13.8614 13.5168C13.6966 13.1388 13.8469 12.295 14.4525 10.2465C14.5971 9.75777 14.7141 9.35096 14.7141 9.34377C14.7141 9.33802 14.7459 9.30352 14.7835 9.26615C14.8384 9.21152 14.9656 9.20002 15.4773 9.20002C15.8198 9.20002 16.1494 9.21727 16.2086 9.24027L16.317 9.28052L16.2086 9.65571C15.9441 10.5757 15.6709 11.6926 15.6233 12.042C15.5799 12.3582 15.5813 12.443 15.6334 12.548C15.749 12.7866 16.1739 12.8369 16.5353 12.6558C16.9573 12.4416 17.0368 12.259 17.7175 9.93315C17.8187 9.59246 17.8939 9.41565 17.9777 9.32509L18.0991 9.20002H18.7784C19.3045 9.20002 19.4635 9.21296 19.4808 9.25752C19.4967 9.30065 18.6339 12.4531 18.2697 13.6764L18.2118 13.8676L17.4848 13.8891C17.0859 13.9006 16.7593 13.8978 16.7593 13.8834C16.7593 13.869 16.7882 13.7741 16.8243 13.6735C16.9717 13.2653 16.7882 13.2394 16.2534 13.5945C15.7244 13.9438 15.5018 14.0257 15.0451 14.0458C14.7358 14.0588 14.6 14.0458 14.4193 13.9811ZM19.251 13.8546C19.212 13.8302 19.436 12.985 20.0994 10.649L20.9999 7.47215L22.5218 7.48652C24.421 7.5009 24.8083 7.53396 25.1755 7.71221C25.4775 7.85596 25.6206 7.98677 25.755 8.2369C25.9805 8.65665 25.9776 9.14252 25.7435 9.81096C25.3821 10.8373 24.7115 11.5115 23.8255 11.7372C23.6824 11.7731 23.2329 11.8235 22.8253 11.8465C21.4812 11.9241 21.5636 11.9097 21.4913 12.0908C21.4566 12.1771 21.3222 12.617 21.1936 13.0683L20.958 13.8877H20.1298C19.676 13.8877 19.2799 13.8733 19.251 13.8546ZM23.1679 10.4377C23.6102 10.3816 23.8429 10.248 23.9903 9.96334C24.1493 9.66002 24.1912 9.32796 24.09 9.17559C23.9513 8.97002 23.7634 8.92546 23.0523 8.92834C22.6982 8.92977 22.3903 8.94846 22.3686 8.97002C22.3209 9.01746 22.0217 10.1775 22.0217 10.317C22.0217 10.3745 22.0347 10.4348 22.0506 10.4506C22.0911 10.4909 22.8138 10.4823 23.1679 10.4377ZM25.6524 13.9984C25.1408 13.7885 25.0078 13.4406 25.1755 12.7478C25.4082 11.7775 25.9227 11.454 27.686 11.1622C28.7512 10.9868 29.0172 10.8575 29.0938 10.4823C29.1516 10.2048 28.9088 10.0525 28.4058 10.0525C28.0936 10.0525 27.9751 10.097 27.7048 10.3198L27.4851 10.4995L26.9214 10.5139C26.2667 10.5311 26.0658 10.5053 26.0658 10.4061C26.0658 10.2911 26.3231 9.93746 26.5615 9.72184C26.8202 9.49184 27.1599 9.31502 27.5299 9.22159C28.3046 9.02321 29.6372 9.04621 30.0954 9.26471C30.3411 9.38259 30.5579 9.57809 30.6634 9.77215C30.7617 9.95615 30.7255 10.1473 30.263 11.9471C30.0361 12.8311 29.8497 13.629 29.8497 13.721V13.8891H29.312C29.066 13.8871 28.82 13.8962 28.5749 13.9165L28.3725 13.9423L28.2858 13.7411C28.1803 13.5039 28.1687 13.5039 27.621 13.744C27.0284 14.007 26.8101 14.0645 26.3491 14.0861C25.9559 14.1033 25.888 14.0961 25.6524 13.9998V13.9984ZM27.991 13.0022C28.2902 12.8728 28.6284 12.341 28.6313 11.996V11.8306L28.3566 11.8551C28.0502 11.8838 27.4027 12.088 27.1657 12.2317C27.0713 12.2846 26.9924 12.3611 26.9369 12.4536C26.8813 12.5462 26.8511 12.6515 26.8492 12.7593C26.8492 12.9605 26.881 13.018 27.024 13.077C27.1874 13.146 27.7641 13.1014 27.991 13.0022ZM30.3859 15.9088C30.2124 15.87 30.2052 15.8053 30.3252 15.3381C30.4885 14.7114 30.4769 14.7243 30.8787 14.6625C31.3109 14.5978 31.5031 14.5044 31.6014 14.3146C31.7069 14.1062 31.6997 13.2825 31.5696 11.076C31.4973 9.8469 31.48 9.29059 31.5118 9.25321C31.545 9.2144 31.7647 9.20002 32.3313 9.20002H33.106L33.1205 10.626C33.1291 11.5992 33.1494 12.0664 33.1812 12.0995C33.2607 12.1771 33.5512 11.6941 34.745 9.50909L34.9127 9.20002H35.5978C35.9735 9.20002 36.2915 9.2144 36.3016 9.23309C36.3233 9.26759 35.287 11.0788 34.2464 12.8225C32.7678 15.3036 32.4903 15.6443 31.7965 15.8341C31.5696 15.8959 30.568 15.9491 30.3859 15.9088Z" fill="#2A2C83"/>
<path fill-rule="evenodd" clip-rule="evenodd" d="M36.796 15.3381L38.8281 8.03992L40.7648 11.8119L36.796 15.3381Z" fill="#097A44"/>
<path fill-rule="evenodd" clip-rule="evenodd" d="M35.537 15.3669L37.5706 8.0658L39.5059 11.8378L35.537 15.3669Z" fill="#F46F20"/>
</svg>
