<svg width="52" height="23" viewBox="0 0 52 23" fill="none" xmlns="http://www.w3.org/2000/svg">
<path d="M50.332 0H2.15465C1.35642 0 0.70932 0.643591 0.70932 1.4375V21.5625C0.70932 22.3564 1.35642 23 2.15465 23H50.332C51.1302 23 51.7773 22.3564 51.7773 21.5625V1.4375C51.7773 0.643591 51.1302 0 50.332 0Z" fill="white"/>
<path d="M20.6932 9H20.3409C20.3201 8.89867 20.2836 8.80966 20.2315 8.73295C20.1804 8.65625 20.1179 8.59186 20.044 8.53977C19.9711 8.48674 19.8902 8.44697 19.8011 8.42045C19.7121 8.39394 19.6193 8.38068 19.5227 8.38068C19.3466 8.38068 19.187 8.42519 19.044 8.5142C18.902 8.60322 18.7888 8.73438 18.7045 8.90767C18.6212 9.08097 18.5795 9.29356 18.5795 9.54545C18.5795 9.79735 18.6212 10.0099 18.7045 10.1832C18.7888 10.3565 18.902 10.4877 19.044 10.5767C19.187 10.6657 19.3466 10.7102 19.5227 10.7102C19.6193 10.7102 19.7121 10.697 19.8011 10.6705C19.8902 10.6439 19.9711 10.6046 20.044 10.5526C20.1179 10.4995 20.1804 10.4347 20.2315 10.358C20.2836 10.2803 20.3201 10.1913 20.3409 10.0909H20.6932C20.6667 10.2396 20.6184 10.3726 20.5483 10.4901C20.4782 10.6075 20.3911 10.7074 20.2869 10.7898C20.1828 10.8712 20.0658 10.9332 19.9361 10.9759C19.8073 11.0185 19.6695 11.0398 19.5227 11.0398C19.2746 11.0398 19.054 10.9792 18.8608 10.858C18.6676 10.7367 18.5156 10.5644 18.4048 10.3409C18.294 10.1174 18.2386 9.85227 18.2386 9.54545C18.2386 9.23864 18.294 8.97348 18.4048 8.75C18.5156 8.52652 18.6676 8.35417 18.8608 8.23295C19.054 8.11174 19.2746 8.05114 19.5227 8.05114C19.6695 8.05114 19.8073 8.07244 19.9361 8.11506C20.0658 8.15767 20.1828 8.22017 20.2869 8.30256C20.3911 8.384 20.4782 8.48343 20.5483 8.60085C20.6184 8.71733 20.6667 8.85038 20.6932 9ZM21.3817 11H21.0124L22.0806 8.09091H22.4442L23.5124 11H23.1431L22.2738 8.55114H22.2511L21.3817 11ZM21.5181 9.86364H23.0067V10.1761H21.5181V9.86364ZM25.5565 8.81818C25.5394 8.67424 25.4703 8.5625 25.3491 8.48295C25.2279 8.40341 25.0792 8.36364 24.9031 8.36364C24.7743 8.36364 24.6616 8.38447 24.565 8.42614C24.4693 8.4678 24.3945 8.52509 24.3406 8.59801C24.2875 8.67093 24.261 8.75379 24.261 8.84659C24.261 8.92424 24.2795 8.991 24.3164 9.04688C24.3543 9.1018 24.4026 9.14773 24.4613 9.18466C24.52 9.22064 24.5816 9.25047 24.646 9.27415C24.7103 9.29687 24.7695 9.31534 24.8235 9.32955L25.119 9.40909C25.1947 9.42898 25.279 9.45644 25.3718 9.49148C25.4656 9.52652 25.555 9.57434 25.6403 9.63494C25.7264 9.6946 25.7975 9.77131 25.8533 9.86506C25.9092 9.95881 25.9371 10.0739 25.9371 10.2102C25.9371 10.3674 25.896 10.5095 25.8136 10.6364C25.7321 10.7633 25.6128 10.8641 25.4556 10.9389C25.2994 11.0137 25.1095 11.0511 24.886 11.0511C24.6777 11.0511 24.4973 11.0175 24.3448 10.9503C24.1933 10.883 24.074 10.7893 23.9869 10.669C23.9007 10.5488 23.8519 10.4091 23.8406 10.25H24.2042C24.2137 10.3598 24.2506 10.4508 24.315 10.5227C24.3803 10.5937 24.4627 10.6468 24.5621 10.6818C24.6625 10.7159 24.7705 10.733 24.886 10.733C25.0205 10.733 25.1412 10.7112 25.2482 10.6676C25.3552 10.6231 25.44 10.5616 25.5025 10.483C25.565 10.4034 25.5962 10.3106 25.5962 10.2045C25.5962 10.108 25.5692 10.0294 25.5153 9.96875C25.4613 9.90814 25.3903 9.8589 25.3022 9.82102C25.2141 9.78314 25.119 9.75 25.0167 9.72159L24.6587 9.61932C24.4315 9.55398 24.2515 9.4607 24.119 9.33949C23.9864 9.21828 23.9201 9.05966 23.9201 8.86364C23.9201 8.70076 23.9641 8.55871 24.0522 8.4375C24.1412 8.31534 24.2605 8.22064 24.4102 8.15341C24.5607 8.08523 24.7288 8.05114 24.9144 8.05114C25.1019 8.05114 25.2686 8.08475 25.4144 8.15199C25.5603 8.21828 25.6758 8.30919 25.761 8.42472C25.8472 8.54025 25.8926 8.6714 25.8974 8.81818H25.5565ZM26.5163 11V8.09091H26.8686V9.38636H28.4197V8.09091H28.772V11H28.4197V9.69886H26.8686V11H26.5163ZM20.8068 14.5455C20.8068 14.8523 20.7514 15.1174 20.6406 15.3409C20.5298 15.5644 20.3778 15.7367 20.1847 15.858C19.9915 15.9792 19.7708 16.0398 19.5227 16.0398C19.2746 16.0398 19.054 15.9792 18.8608 15.858C18.6676 15.7367 18.5156 15.5644 18.4048 15.3409C18.294 15.1174 18.2386 14.8523 18.2386 14.5455C18.2386 14.2386 18.294 13.9735 18.4048 13.75C18.5156 13.5265 18.6676 13.3542 18.8608 13.233C19.054 13.1117 19.2746 13.0511 19.5227 13.0511C19.7708 13.0511 19.9915 13.1117 20.1847 13.233C20.3778 13.3542 20.5298 13.5265 20.6406 13.75C20.7514 13.9735 20.8068 14.2386 20.8068 14.5455ZM20.4659 14.5455C20.4659 14.2936 20.4238 14.081 20.3395 13.9077C20.2562 13.7344 20.143 13.6032 20 13.5142C19.858 13.4252 19.6989 13.3807 19.5227 13.3807C19.3466 13.3807 19.187 13.4252 19.044 13.5142C18.902 13.6032 18.7888 13.7344 18.7045 13.9077C18.6212 14.081 18.5795 14.2936 18.5795 14.5455C18.5795 14.7973 18.6212 15.0099 18.7045 15.1832C18.7888 15.3565 18.902 15.4877 19.044 15.5767C19.187 15.6657 19.3466 15.7102 19.5227 15.7102C19.6989 15.7102 19.858 15.6657 20 15.5767C20.143 15.4877 20.2562 15.3565 20.3395 15.1832C20.4238 15.0099 20.4659 14.7973 20.4659 14.5455ZM23.706 13.0909V16H23.3651L21.7798 13.7159H21.7514V16H21.3991V13.0909H21.7401L23.331 15.3807H23.3594V13.0909H23.706ZM25.3086 16H24.4109V13.0909H25.3484C25.6306 13.0909 25.872 13.1491 26.0728 13.2656C26.2736 13.3812 26.4274 13.5473 26.5344 13.7642C26.6415 13.9801 26.695 14.2386 26.695 14.5398C26.695 14.8428 26.641 15.1037 26.533 15.3224C26.4251 15.5402 26.2679 15.7079 26.0614 15.8253C25.855 15.9418 25.604 16 25.3086 16ZM24.7631 15.6875H25.2859C25.5264 15.6875 25.7257 15.6411 25.8839 15.5483C26.042 15.4555 26.1599 15.3234 26.2376 15.152C26.3152 14.9806 26.354 14.7765 26.354 14.5398C26.354 14.3049 26.3157 14.1027 26.239 13.9332C26.1623 13.7628 26.0477 13.6321 25.8952 13.5412C25.7428 13.4493 25.5529 13.4034 25.3256 13.4034H24.7631V15.6875ZM27.2859 16V13.0909H29.0415V13.4034H27.6381V14.3864H28.9506V14.6989H27.6381V15.6875H29.0643V16H27.2859ZM29.6765 16V13.0909H30.0288V15.6875H31.381V16H29.6765ZM32.2788 13.0909V16H31.9265V13.0909H32.2788ZM33.1044 13.0909L33.968 15.5398H34.0021L34.8658 13.0909H35.2351L34.1669 16H33.8033L32.7351 13.0909H33.1044ZM35.6882 16V13.0909H37.4439V13.4034H36.0405V14.3864H37.353V14.6989H36.0405V15.6875H37.4666V16H35.6882ZM38.0788 16V13.0909H39.0618C39.2891 13.0909 39.4756 13.1297 39.6214 13.2074C39.7673 13.2841 39.8752 13.3897 39.9453 13.5241C40.0154 13.6586 40.0504 13.8116 40.0504 13.983C40.0504 14.1544 40.0154 14.3063 39.9453 14.4389C39.8752 14.5715 39.7678 14.6757 39.6229 14.7514C39.478 14.8262 39.2929 14.8636 39.0675 14.8636H38.272V14.5455H39.0561C39.2114 14.5455 39.3364 14.5227 39.4311 14.4773C39.5268 14.4318 39.5959 14.3674 39.6385 14.2841C39.6821 14.1998 39.7038 14.0994 39.7038 13.983C39.7038 13.8665 39.6821 13.7647 39.6385 13.6776C39.5949 13.5904 39.5253 13.5232 39.4297 13.4759C39.334 13.4276 39.2076 13.4034 39.0504 13.4034H38.4311V16H38.0788ZM39.4482 14.6932L40.1641 16H39.755L39.0504 14.6932H39.4482ZM40.2898 13.0909H40.6932L41.5 14.4489H41.5341L42.3409 13.0909H42.7443L41.6932 14.8011V16H41.3409V14.8011L40.2898 13.0909Z" fill="#4E4E4E"/>
<path d="M11.1282 9.44602L10.8867 10.2699H6.28443L6.5259 9.44602H11.1282ZM8.96909 15L6.36965 11.8182L6.35545 11.2216H7.64806C7.98424 11.2216 8.2707 11.1742 8.50744 11.0795C8.74418 10.9825 8.92529 10.8381 9.05076 10.6463C9.17624 10.4522 9.23897 10.2083 9.23897 9.91477C9.23897 9.48153 9.10876 9.14181 8.84835 8.8956C8.58793 8.64702 8.18784 8.52273 7.64806 8.52273H6.28443L6.5259 7.72727H7.64806C8.22571 7.72727 8.6992 7.82315 9.06852 8.01491C9.4402 8.20431 9.71482 8.46473 9.89238 8.79616C10.0723 9.12524 10.1623 9.49811 10.1623 9.91477C10.1623 10.2912 10.0794 10.638 9.91369 10.9553C9.75034 11.2701 9.48755 11.5234 9.12534 11.7152C8.76549 11.907 8.28964 12.0028 7.69778 12.0028H7.67647L10.077 14.9432V15H8.96909ZM11.1282 7.72727L10.8867 8.55114L7.26454 8.52273L7.50602 7.72727H11.1282Z" fill="#212121"/>
</svg>
