<svg width="48" height="23" viewBox="0 0 48 23" fill="none" xmlns="http://www.w3.org/2000/svg">
<path d="M45.8014 0H2.44137C1.64313 0 0.996033 0.643591 0.996033 1.4375V21.5625C0.996033 22.3564 1.64313 23 2.44137 23H45.8014C46.5996 23 47.2467 22.3564 47.2467 21.5625V1.4375C47.2467 0.643591 46.5996 0 45.8014 0Z" fill="white"/>
<path d="M18.5265 18.6875C22.5607 18.6875 25.8312 15.4695 25.8312 11.5C25.8312 7.53045 22.5607 4.3125 18.5265 4.3125C14.4922 4.3125 11.2217 7.53045 11.2217 11.5C11.2217 15.4695 14.4922 18.6875 18.5265 18.6875Z" fill="#CC0000"/>
<path d="M28.7522 18.6875C32.7864 18.6875 36.0569 15.4695 36.0569 11.5C36.0569 7.53045 32.7864 4.3125 28.7522 4.3125C24.7179 4.3125 21.4474 7.53045 21.4474 11.5C21.4474 15.4695 24.7179 18.6875 28.7522 18.6875Z" fill="#FF9900"/>
<path fill-rule="evenodd" clip-rule="evenodd" d="M23.6386 16.6463C23.6386 16.6463 25.8311 14.3419 25.8311 11.5C25.8311 8.65807 23.6371 6.35376 23.6371 6.35376C23.6371 6.35376 21.4474 8.1147 21.4474 11.5C21.4474 14.8853 23.6386 16.6463 23.6386 16.6463Z" fill="#F16D27"/>
</svg>
