<svg width="48" height="23" viewBox="0 0 48 23" fill="none" xmlns="http://www.w3.org/2000/svg">
<path d="M45.4357 0H2.76951C1.7797 0 0.977295 0.798052 0.977295 1.7825V21.2175C0.977295 22.2019 1.7797 23 2.76951 23H45.4357C46.4256 23 47.228 22.2019 47.228 21.2175V1.7825C47.228 0.798052 46.4256 0 45.4357 0Z" fill="white"/>
<path d="M17.0465 23H44.4818C45.4675 23 46.2654 22.2094 46.2654 21.2247V12.9375C46.2654 12.9375 35.9457 19.8892 17.048 23H17.0465Z" fill="#F58220"/>
<path fill-rule="evenodd" clip-rule="evenodd" d="M9.26048 12.1382C8.92083 12.43 8.48724 12.558 7.79493 12.558H7.50875V9.0706H7.79493C8.48869 9.0706 8.90349 9.18991 9.26048 9.4961C9.6276 9.81235 9.84873 10.3025 9.84873 10.8085C9.84873 11.316 9.6276 11.8234 9.26048 12.1382ZM8.01029 8.17791H6.43774V13.4507H7.99871C8.83122 13.4507 9.43105 13.2609 9.95715 12.8412C10.5815 12.3438 10.9515 11.5934 10.9515 10.8157C10.9515 9.25891 9.74324 8.17791 8.01029 8.17791V8.17791ZM11.4458 8.17791H12.5111V13.4507H11.4458V8.17791ZM15.1271 10.199C14.4839 9.97191 14.296 9.82098 14.296 9.53635C14.296 9.20573 14.6328 8.95273 15.0939 8.95273C15.4147 8.95273 15.6778 9.07635 15.9596 9.37823L16.5161 8.67529C16.0685 8.29253 15.4962 8.0846 14.906 8.09023C13.9361 8.09023 13.1961 8.73854 13.1961 9.59816C13.1961 10.327 13.5401 10.6964 14.5432 11.0472C14.9623 11.188 15.1762 11.2844 15.2832 11.349C15.3804 11.4031 15.4613 11.482 15.5177 11.5775C15.5741 11.673 15.6039 11.7817 15.6041 11.8924C15.6041 12.3208 15.25 12.6356 14.773 12.6356C14.5313 12.6411 14.293 12.5776 14.0864 12.4528C13.8797 12.328 13.7132 12.147 13.6066 11.9312L12.9172 12.5738C13.4086 13.2681 14.0012 13.5786 14.8149 13.5786C15.9249 13.5786 16.7069 12.8642 16.7069 11.8464C16.7069 11.0069 16.3441 10.626 15.1271 10.199M17.0422 10.8157C17.0422 12.3668 18.3083 13.5685 19.9372 13.5685C20.3968 13.5685 20.7899 13.4823 21.2755 13.2609V12.0491C20.8477 12.4631 20.4705 12.627 19.9849 12.627C18.9081 12.627 18.145 11.878 18.145 10.8085C18.145 9.79798 18.9327 8.99729 19.9372 8.99729C20.4445 8.99729 20.8318 9.16979 21.2755 9.59098V8.3806C20.8701 8.16809 20.4186 8.05754 19.9603 8.0586C18.3401 8.0586 17.0422 9.28335 17.0422 10.8157ZM29.9374 11.7185L28.4762 8.17791H27.3098L29.6353 13.5844H30.2077L32.5781 8.17791H31.4218L29.9389 11.7185M33.0622 13.4507H36.0946V12.558H34.1318V11.1349H36.0208V10.2407H34.1318V9.0706H36.0946V8.17935H33.0622V13.4521M38.1831 10.603H37.8723V9.00735H38.2004C38.8682 9.00735 39.2266 9.2776 39.2266 9.79079C39.2266 10.3184 38.8681 10.603 38.1831 10.603V10.603ZM40.3279 9.73329C40.3279 8.74573 39.6226 8.17791 38.3883 8.17791H36.7999V13.4507H37.8723V11.3304H38.0111L39.4882 13.4507H40.8034L39.0792 11.2283C39.8857 11.0702 40.3279 10.5412 40.3279 9.73329V9.73329Z" fill="#1A1919"/>
<path fill-rule="evenodd" clip-rule="evenodd" d="M27.4615 10.8287C27.4615 12.3467 26.1824 13.5772 24.6027 13.5772C23.0244 13.5772 21.7452 12.3467 21.7452 10.8287C21.7452 9.30924 23.0244 8.07874 24.6027 8.07874C26.1824 8.07874 27.4615 9.30924 27.4615 10.8287Z" fill="#F58220"/>
</svg>
