<svg width="47" height="23" viewBox="0 0 47 23" fill="none" xmlns="http://www.w3.org/2000/svg">
<path d="M44.8053 0H1.44533C0.647098 0 0 0.643591 0 1.4375V21.5625C0 22.3564 0.647098 23 1.44533 23H44.8053C45.6036 23 46.2507 22.3564 46.2507 21.5625V1.4375C46.2507 0.643591 45.6036 0 44.8053 0Z" fill="white"/>
<path fill-rule="evenodd" clip-rule="evenodd" d="M17.2515 16.6462L18.9338 6.36379H21.6265L19.9427 16.6462H17.25M29.7103 6.61679C28.9391 6.32699 28.1209 6.18081 27.2965 6.18554C24.6357 6.18554 22.7611 7.57991 22.7466 9.57804C22.7293 11.0558 24.0836 11.8809 25.104 12.3725C26.1533 12.8757 26.506 13.1977 26.5016 13.6476C26.4944 14.3376 25.6633 14.6524 24.8901 14.6524C23.8118 14.6524 23.2395 14.4972 22.3535 14.1133L22.0066 13.9495L21.6308 16.2495C22.2596 16.537 23.4231 16.7857 24.6314 16.7986C27.4599 16.7986 29.2983 15.42 29.32 13.2868C29.3301 12.1152 28.6118 11.2268 27.0581 10.4923C26.1172 10.0165 25.5405 9.70022 25.5462 9.21722C25.5462 8.79029 26.0348 8.33316 27.0884 8.33316C27.9701 8.31879 28.606 8.52004 29.1032 8.72847L29.346 8.84491L29.7103 6.61679ZM33.2961 13.0007C33.5187 12.4099 34.3686 10.1257 34.3686 10.1257C34.3527 10.1545 34.5897 9.5306 34.7256 9.14535L34.9077 10.0323L35.5306 13.0007H33.2961ZM36.6175 6.37385H34.5362C33.8916 6.37385 33.4089 6.55641 33.1256 7.22629L29.1263 16.6505H31.9549C31.9549 16.6505 32.4174 15.3827 32.5214 15.1038L35.97 15.1095C36.0495 15.4689 36.2966 16.6505 36.2966 16.6505H38.7971L36.6175 6.37529V6.37385ZM14.9924 6.37241L12.3576 13.3831L12.0743 11.9571C11.5829 10.3155 10.0552 8.53585 8.34534 7.6446L10.7562 16.6376L13.6049 16.6362L17.8455 6.37241H14.9924Z" fill="#191975"/>
<path fill-rule="evenodd" clip-rule="evenodd" d="M9.91063 6.36523H5.56885L5.53271 6.57942C8.9119 7.43042 11.1464 9.48605 12.0743 11.9571L11.1305 7.23348C10.9686 6.5823 10.4945 6.38823 9.91063 6.36523Z" fill="#EC982D"/>
</svg>
