<svg width="48" height="23" viewBox="0 0 48 23" fill="none" xmlns="http://www.w3.org/2000/svg">
<path d="M45.7881 0H2.42806C1.62982 0 0.982727 0.643591 0.982727 1.4375V21.5625C0.982727 22.3564 1.62982 23 2.42806 23H45.7881C46.5863 23 47.2334 22.3564 47.2334 21.5625V1.4375C47.2334 0.643591 46.5863 0 45.7881 0Z" fill="white"/>
<path fill-rule="evenodd" clip-rule="evenodd" d="M19.243 4.3125H28.0769C29.9945 4.3125 31.8337 5.06943 33.1905 6.41706C34.5474 7.76469 35.311 9.59283 35.3137 11.5C35.3137 12.4447 35.1264 13.3802 34.7626 14.2529C34.3988 15.1255 33.8656 15.9183 33.1935 16.5859C32.5214 17.2534 31.7235 17.7827 30.8456 18.1433C29.9676 18.5039 29.0268 18.6888 28.0769 18.6875H19.243V4.3125Z" fill="#184977"/>
<path d="M19.2431 18.6875C23.2774 18.6875 26.5478 15.4695 26.5478 11.5C26.5478 7.53045 23.2774 4.3125 19.2431 4.3125C15.2088 4.3125 11.9384 7.53045 11.9384 11.5C11.9384 15.4695 15.2088 18.6875 19.2431 18.6875Z" fill="white"/>
<path d="M19.2431 17.9688C22.8782 17.9688 25.8251 15.0726 25.8251 11.5C25.8251 7.92741 22.8782 5.03125 19.2431 5.03125C15.6079 5.03125 12.661 7.92741 12.661 11.5C12.661 15.0726 15.6079 17.9688 19.2431 17.9688Z" stroke="#184977"/>
<path fill-rule="evenodd" clip-rule="evenodd" d="M22.1655 11.5C22.1686 10.8045 21.9613 10.1242 21.5705 9.54736C21.1798 8.97057 20.6237 8.52398 19.9744 8.26562V14.7344C20.6237 14.476 21.1798 14.0294 21.5705 13.4526C21.9613 12.8758 22.1686 12.1955 22.1655 11.5ZM18.5132 14.7344V8.26562C17.8643 8.52448 17.3085 8.97118 16.9178 9.54787C16.5271 10.1246 16.3196 10.8046 16.322 11.5C16.3194 12.1954 16.5268 12.8756 16.9175 13.4523C17.3082 14.029 17.8641 14.4757 18.5132 14.7344Z" fill="#184977"/>
</svg>
