<svg width="250" height="48" viewBox="0 0 250 48" fill="none" xmlns="http://www.w3.org/2000/svg"><path d="M33.3278 20.3833C31.5542 19.0264 29.3825 18.2928 27.1494 18.2962C26.491 18.2962 25.834 18.3595 25.1877 18.4854C23.6056 18.7945 22.1199 19.4762 20.8538 20.4741C20.8193 20.5011 20.7854 20.5316 20.7514 20.5563V15.7946C20.7273 14.8267 20.3432 13.9025 19.6742 13.2026C19.0051 12.5027 18.0992 12.0774 17.1333 12.0098C17.0442 12.0034 16.9528 12 16.8619 12V29.4622C16.7939 29.8327 16.6923 30.1962 16.5584 30.5483C16.1172 31.7126 15.3417 32.7206 14.3293 33.4454V33.4454C13.4136 34.1011 12.3387 34.4989 11.2168 34.5975C10.0948 34.6962 8.96702 34.4919 7.95095 34.0061C6.93489 33.5202 6.06781 32.7706 5.44019 31.8355C4.81256 30.9003 4.44739 29.8139 4.38276 28.6895C4.37931 28.6579 4.37644 28.5895 4.37414 28.517V28.1916C4.37759 28.0703 4.38334 27.9501 4.39254 27.8305C4.46959 26.8637 4.76885 25.9278 5.267 25.0956C5.76515 24.2634 6.44874 23.5575 7.26449 23.0329C8.08024 22.5083 9.00611 22.1791 9.96995 22.0711C10.9338 21.963 11.9096 22.079 12.8212 22.41C13.2823 21.1899 14.1101 20.1427 15.1906 19.4122C14.3592 18.9857 13.4729 18.6761 12.5568 18.4923V18.4923C11.1369 18.2089 9.67295 18.2308 8.26218 18.5566C6.85141 18.8823 5.52607 19.5044 4.37414 20.3815V18.3773H0.48291V38.7505C1.25358 38.7508 2.00703 38.5224 2.64776 38.0942C3.2885 37.6659 3.78768 37.0571 4.08207 36.3449C4.17712 36.4254 4.2741 36.5045 4.37299 36.5823C6.14602 37.9379 8.31662 38.6709 10.5485 38.6677C11.221 38.6678 11.892 38.6017 12.5516 38.4705V38.4705C14.1245 38.156 15.6004 37.4729 16.8579 36.4771L16.8855 36.4553C17.6327 35.8603 18.2928 35.1636 18.8467 34.3855L18.8547 34.3958C18.8742 34.3682 18.8944 34.3383 18.9122 34.3113C19.0272 34.1515 19.1335 33.9876 19.2342 33.8215C19.2572 33.7847 19.2813 33.7479 19.3032 33.7099C19.4672 33.4378 19.6178 33.158 19.7551 32.8705C19.7867 32.8044 19.8172 32.7377 19.8482 32.671C19.8793 32.6043 19.9114 32.5278 19.9419 32.456C20.0132 32.2887 20.0805 32.119 20.1414 31.9477C20.1662 31.881 20.1886 31.8138 20.2127 31.7459C20.2386 31.6666 20.2645 31.5872 20.2892 31.5073C20.3139 31.4274 20.3386 31.348 20.3611 31.267C20.3835 31.1859 20.4065 31.1054 20.4266 31.0244C20.4467 30.9433 20.4657 30.8657 20.4841 30.7863C20.5054 30.6943 20.5243 30.6023 20.5416 30.5092C20.5571 30.4339 20.5721 30.358 20.5847 30.2792C20.5974 30.2005 20.6146 30.1113 20.6267 30.0268C20.6267 30.0216 20.6296 30.0165 20.6307 30.0107C20.6405 29.932 20.652 29.8532 20.6623 29.7733C20.6727 29.6934 20.6836 29.6008 20.6911 29.5174C20.7089 29.3564 20.7198 29.1943 20.7302 29.0322C20.7302 29.0103 20.7302 28.9879 20.7302 28.9655C20.7308 28.9624 20.7308 28.9593 20.7302 28.9563C20.7336 28.8896 20.7348 28.8246 20.7371 28.7573C20.7371 28.7418 20.7371 28.7263 20.7371 28.7102C20.7371 28.6746 20.7399 28.6383 20.7399 28.6033V27.903C20.8521 26.2764 21.5909 24.7569 22.8008 23.664C24.0107 22.5712 25.5974 21.9904 27.2269 22.0438C28.8564 22.0972 30.4017 22.7807 31.5374 23.9504C32.6732 25.1201 33.3109 26.6848 33.3163 28.3152V28.3417C33.3144 29.4915 32.9976 30.6188 32.4002 31.6013C31.8028 32.5837 30.9476 33.3837 29.9276 33.9144C28.9076 34.4451 27.7616 34.6862 26.6142 34.6116C25.4668 34.5369 24.3618 34.1493 23.4192 33.4909C22.7671 34.6486 21.8958 35.6682 20.8538 36.4927C22.12 37.4903 23.6057 38.172 25.1877 38.4814C25.834 38.6073 26.491 38.6706 27.1494 38.6705C29.8482 38.6707 32.4368 37.5999 34.3467 35.6931C36.2567 33.7864 37.3319 31.1997 37.3363 28.5009V28.4612C37.3343 26.8972 36.9715 25.3547 36.2763 23.9537C35.5811 22.5527 34.5721 21.3309 33.3278 20.3833V20.3833Z" fill="url(#paint0_linear_3270_6047)"/><path d="M2.40499 16.8901C2.88066 16.8901 3.34564 16.749 3.74114 16.4848C4.13664 16.2205 4.44489 15.8449 4.62692 15.4054C4.80895 14.966 4.85657 14.4824 4.76378 14.0159C4.67098 13.5494 4.44193 13.1208 4.10558 12.7845C3.76924 12.4481 3.34071 12.2191 2.87419 12.1263C2.40766 12.0335 1.9241 12.0811 1.48464 12.2631C1.04519 12.4452 0.669579 12.7534 0.405315 13.1489C0.141051 13.5444 6.87632e-08 14.0094 6.87632e-08 14.4851C-7.54662e-05 14.8009 0.06208 15.1137 0.182916 15.4055C0.303751 15.6973 0.480899 15.9625 0.704238 16.1858C0.927577 16.4092 1.19273 16.5863 1.48455 16.7072C1.77637 16.828 2.08914 16.8901 2.40499 16.8901V16.8901Z" fill="url(#paint1_linear_3270_6047)"/><path d="M47.4706 26.064V34H46.6866V26.064H47.4706ZM46.4626 23.52C46.4626 23.712 46.5266 23.872 46.6546 23.984C46.7826 24.096 46.9266 24.144 47.0866 24.144C47.2466 24.144 47.3906 24.096 47.5186 23.984C47.6466 23.872 47.7266 23.712 47.7266 23.52C47.7266 23.328 47.6466 23.184 47.5186 23.072C47.3906 22.96 47.2466 22.896 47.0866 22.896C46.9266 22.896 46.7826 22.96 46.6546 23.072C46.5266 23.184 46.4626 23.328 46.4626 23.52ZM50.0616 26.096V34H50.8456V29.6C50.8456 28.784 51.1016 28.096 51.6136 27.552C52.1256 27.008 52.7976 26.736 53.6136 26.72C54.4776 26.72 55.1656 26.944 55.6776 27.424C56.1736 27.904 56.4296 28.576 56.4296 29.456V34H57.2136V29.44C57.2136 28.368 56.8776 27.52 56.2216 26.896C55.5656 26.272 54.7016 25.952 53.6456 25.952C52.3336 25.984 51.3896 26.496 50.8296 27.504V26.096H50.0616ZM63.1903 26.72C64.1183 26.72 64.8863 27.04 65.4943 27.648C66.1023 28.272 66.4223 29.072 66.4223 30.032C66.4223 31.024 66.1183 31.824 65.5103 32.432C64.9023 33.056 64.1183 33.36 63.1903 33.36C62.2623 33.36 61.4783 33.072 60.8703 32.496C60.2623 31.92 59.9583 31.104 59.9583 30.048C59.9583 28.992 60.2623 28.16 60.8703 27.584C61.4783 27.008 62.2463 26.72 63.1903 26.72ZM66.4383 22.8V27.824C66.1183 27.216 65.6703 26.752 65.0943 26.432C64.5183 26.128 63.8623 25.968 63.1583 25.968C62.0063 25.968 61.0623 26.336 60.3103 27.056C59.5583 27.792 59.1903 28.784 59.1903 30.048C59.1903 31.328 59.5583 32.32 60.3103 33.04C61.0463 33.776 61.9903 34.128 63.1423 34.128C63.8143 34.128 64.4543 33.968 65.0623 33.632C65.6543 33.312 66.1183 32.848 66.4383 32.256V34H67.2063V22.8H66.4383ZM70.58 26.064V34H69.796V26.064H70.58ZM69.572 23.52C69.572 23.712 69.636 23.872 69.764 23.984C69.892 24.096 70.036 24.144 70.196 24.144C70.356 24.144 70.5 24.096 70.628 23.984C70.756 23.872 70.836 23.712 70.836 23.52C70.836 23.328 70.756 23.184 70.628 23.072C70.5 22.96 70.356 22.896 70.196 22.896C70.036 22.896 69.892 22.96 69.764 23.072C69.636 23.184 69.572 23.328 69.572 23.52ZM79.891 26.096V27.824C79.571 27.232 79.107 26.784 78.531 26.464C77.955 26.16 77.331 26 76.659 26C75.523 26 74.563 26.384 73.795 27.136C73.027 27.904 72.643 28.864 72.643 30.048C72.643 31.232 73.027 32.208 73.811 32.976C74.579 33.744 75.539 34.128 76.659 34.128C78.067 34.128 79.139 33.536 79.891 32.32V34H80.675V26.096H79.891ZM76.659 26.752C77.267 26.752 77.795 26.88 78.275 27.12C78.739 27.376 79.091 27.68 79.347 28.064C79.587 28.448 79.763 28.88 79.891 29.36C80.003 29.84 80.003 30.304 79.891 30.768C79.763 31.248 79.587 31.664 79.347 32.048C79.091 32.432 78.739 32.752 78.275 32.992C77.795 33.248 77.267 33.36 76.659 33.36C75.731 33.36 74.963 33.056 74.355 32.432C73.731 31.824 73.427 31.024 73.427 30.048C73.427 29.088 73.731 28.288 74.355 27.68C74.963 27.072 75.731 26.752 76.659 26.752ZM83.2648 26.096V34H84.0488V29.6C84.0488 28.784 84.3048 28.096 84.8168 27.552C85.3288 27.008 86.0008 26.736 86.8168 26.72C87.6808 26.72 88.3688 26.944 88.8808 27.424C89.3768 27.904 89.6328 28.576 89.6328 29.456V34H90.4167V29.44C90.4167 28.368 90.0808 27.52 89.4248 26.896C88.7688 26.272 87.9048 25.952 86.8488 25.952C85.5368 25.984 84.5928 26.496 84.0328 27.504V26.096H83.2648Z" fill="url(#paint2_linear_3270_6047)"/><path d="M99.0939 31.872C98.6139 32.368 97.9899 32.608 97.2219 32.608C96.5019 32.608 95.9099 32.384 95.4299 31.936C94.9499 31.488 94.7099 30.864 94.7099 30.064C94.7099 29.296 94.9499 28.688 95.4299 28.208C95.9099 27.728 96.5019 27.488 97.2379 27.488C97.9419 27.488 98.5339 27.728 99.0139 28.192L100.07 27.088C99.2699 26.32 98.3259 25.92 97.2219 25.92C96.0219 25.92 95.0299 26.288 94.2459 27.008C93.4459 27.744 93.0619 28.752 93.0619 30.064C93.0619 31.376 93.4459 32.4 94.2459 33.12C95.0299 33.856 96.0219 34.208 97.2219 34.208C98.3739 34.208 99.3819 33.808 100.214 32.976L99.0939 31.872ZM107.783 27.36C107.527 26.928 107.159 26.576 106.679 26.32C106.183 26.064 105.655 25.936 105.095 25.936C103.911 25.936 102.935 26.304 102.167 27.04C101.399 27.776 101.015 28.768 101.015 30.048C101.015 31.36 101.383 32.384 102.151 33.12C102.903 33.856 103.879 34.224 105.063 34.208C105.591 34.208 106.119 34.08 106.631 33.824C107.143 33.568 107.527 33.2 107.783 32.72L107.863 34H109.431V26.112H107.831L107.783 27.36ZM105.223 27.44C105.687 27.44 106.103 27.536 106.471 27.728C106.839 27.92 107.111 28.176 107.303 28.48C107.495 28.8 107.623 29.136 107.719 29.504C107.815 29.888 107.815 30.256 107.719 30.624C107.623 30.992 107.495 31.328 107.303 31.632C107.111 31.952 106.839 32.192 106.471 32.384C106.103 32.576 105.687 32.672 105.223 32.672C104.487 32.672 103.879 32.432 103.399 31.952C102.903 31.472 102.663 30.848 102.663 30.048C102.663 29.264 102.903 28.64 103.399 28.16C103.879 27.68 104.487 27.44 105.223 27.44ZM117.635 26.96C116.835 26.256 115.827 25.904 114.595 25.904C113.731 25.904 112.979 26.112 112.307 26.512C111.635 26.912 111.315 27.504 111.315 28.304C111.315 29.68 112.387 30.48 114.531 30.672C115.139 30.736 115.603 30.848 115.907 31.008C116.211 31.168 116.355 31.424 116.355 31.76C116.339 32.112 116.163 32.368 115.843 32.528C115.507 32.704 115.123 32.784 114.675 32.784C113.507 32.768 112.579 32.384 111.907 31.616L111.043 32.784C111.907 33.76 113.107 34.24 114.643 34.24C115.651 34.24 116.467 34.016 117.075 33.552C117.683 33.104 117.987 32.496 118.003 31.744C118.003 31.264 117.891 30.864 117.699 30.528C117.507 30.208 117.219 29.952 116.851 29.792C116.483 29.632 116.131 29.504 115.811 29.44C115.491 29.376 115.107 29.312 114.659 29.264C113.523 29.168 112.947 28.832 112.947 28.256C112.947 27.952 113.091 27.712 113.395 27.552C113.699 27.392 114.115 27.312 114.627 27.312C115.475 27.312 116.163 27.568 116.707 28.048L117.635 26.96ZM119.651 22.8V34H121.299V29.888C121.299 29.232 121.491 28.672 121.907 28.224C122.323 27.776 122.835 27.536 123.475 27.536C124.083 27.536 124.579 27.728 124.931 28.112C125.283 28.496 125.459 29.04 125.459 29.76V34H127.107V29.744C127.107 28.592 126.835 27.68 126.291 27.008C125.747 26.336 124.931 26 123.859 26C122.755 26 121.907 26.432 121.299 27.28V22.8H119.651ZM133.501 27.488C134.205 27.488 134.797 27.728 135.277 28.176C135.757 28.64 135.997 29.264 135.997 30.048C135.997 30.816 135.757 31.44 135.277 31.92C134.797 32.4 134.205 32.624 133.501 32.624C132.781 32.624 132.173 32.384 131.693 31.904C131.213 31.424 130.973 30.816 130.973 30.048C130.973 29.312 131.213 28.688 131.709 28.208C132.189 27.728 132.797 27.488 133.501 27.488ZM129.229 22.816V34H130.781L130.877 32.752C131.453 33.696 132.365 34.16 133.613 34.16C134.781 34.16 135.741 33.792 136.509 33.056C137.261 32.32 137.645 31.328 137.645 30.048C137.645 28.752 137.261 27.744 136.525 27.024C135.773 26.304 134.813 25.936 133.645 25.936C133.117 25.936 132.589 26.064 132.045 26.32C131.501 26.576 131.117 26.912 130.877 27.344V22.816H129.229ZM145.689 27.36C145.433 26.928 145.065 26.576 144.585 26.32C144.089 26.064 143.561 25.936 143.001 25.936C141.817 25.936 140.841 26.304 140.073 27.04C139.305 27.776 138.921 28.768 138.921 30.048C138.921 31.36 139.289 32.384 140.057 33.12C140.809 33.856 141.785 34.224 142.969 34.208C143.497 34.208 144.025 34.08 144.537 33.824C145.049 33.568 145.433 33.2 145.689 32.72L145.769 34H147.337V26.112H145.737L145.689 27.36ZM143.129 27.44C143.593 27.44 144.009 27.536 144.377 27.728C144.745 27.92 145.017 28.176 145.209 28.48C145.401 28.8 145.529 29.136 145.625 29.504C145.721 29.888 145.721 30.256 145.625 30.624C145.529 30.992 145.401 31.328 145.209 31.632C145.017 31.952 144.745 32.192 144.377 32.384C144.009 32.576 143.593 32.672 143.129 32.672C142.393 32.672 141.785 32.432 141.305 31.952C140.809 31.472 140.569 30.848 140.569 30.048C140.569 29.264 140.809 28.64 141.305 28.16C141.785 27.68 142.393 27.44 143.129 27.44ZM155.125 31.872C154.645 32.368 154.021 32.608 153.253 32.608C152.533 32.608 151.941 32.384 151.461 31.936C150.981 31.488 150.741 30.864 150.741 30.064C150.741 29.296 150.981 28.688 151.461 28.208C151.941 27.728 152.533 27.488 153.269 27.488C153.973 27.488 154.565 27.728 155.045 28.192L156.101 27.088C155.301 26.32 154.357 25.92 153.253 25.92C152.053 25.92 151.061 26.288 150.277 27.008C149.477 27.744 149.093 28.752 149.093 30.064C149.093 31.376 149.477 32.4 150.277 33.12C151.061 33.856 152.053 34.208 153.253 34.208C154.405 34.208 155.413 33.808 156.245 32.976L155.125 31.872ZM157.714 22.816V34H159.378V30.352L162.754 34H164.77V33.888L160.898 29.824L164.306 26.208V26.112H162.306L159.378 29.344V22.816H157.714ZM165.741 33.12C165.741 33.552 165.901 33.856 166.253 34.032C166.589 34.208 166.924 34.208 167.261 34.032C167.597 33.856 167.773 33.552 167.773 33.12C167.773 32.704 167.597 32.4 167.261 32.224C166.924 32.064 166.589 32.064 166.253 32.224C165.901 32.4 165.741 32.704 165.741 33.12ZM175.375 31.872C174.895 32.368 174.271 32.608 173.503 32.608C172.783 32.608 172.191 32.384 171.711 31.936C171.231 31.488 170.991 30.864 170.991 30.064C170.991 29.296 171.231 28.688 171.711 28.208C172.191 27.728 172.783 27.488 173.519 27.488C174.223 27.488 174.815 27.728 175.295 28.192L176.351 27.088C175.551 26.32 174.607 25.92 173.503 25.92C172.303 25.92 171.311 26.288 170.527 27.008C169.727 27.744 169.343 28.752 169.343 30.064C169.343 31.376 169.727 32.4 170.527 33.12C171.311 33.856 172.303 34.208 173.503 34.208C174.655 34.208 175.663 33.808 176.495 32.976L175.375 31.872ZM181.344 25.952C180.128 25.952 179.152 26.352 178.4 27.12C177.648 27.904 177.28 28.88 177.28 30.064C177.28 31.248 177.648 32.24 178.4 33.008C179.136 33.776 180.128 34.16 181.344 34.16C182.56 34.16 183.552 33.776 184.304 33.008C185.056 32.24 185.44 31.248 185.44 30.064C185.44 28.896 185.056 27.92 184.288 27.136C183.52 26.352 182.544 25.952 181.344 25.952ZM181.344 27.472C182.048 27.472 182.624 27.728 183.088 28.24C183.536 28.752 183.776 29.36 183.776 30.064C183.776 30.8 183.552 31.408 183.104 31.888C182.656 32.384 182.08 32.624 181.344 32.624C180.608 32.624 180.016 32.384 179.584 31.888C179.136 31.408 178.928 30.8 178.928 30.064C178.928 29.344 179.136 28.736 179.584 28.224C180.032 27.728 180.608 27.472 181.344 27.472ZM194.239 34V29.664C194.239 29.072 194.415 28.576 194.767 28.16C195.119 27.744 195.583 27.536 196.159 27.536C196.719 27.536 197.151 27.744 197.455 28.128C197.743 28.512 197.903 29.024 197.903 29.632V34H199.567V29.632C199.567 28.48 199.279 27.584 198.703 26.944C198.127 26.304 197.295 25.984 196.223 25.984C194.991 25.984 194.095 26.512 193.519 27.552C193.103 26.496 192.287 25.968 191.039 25.968C190.575 25.968 190.143 26.064 189.743 26.256C189.343 26.448 189.039 26.752 188.831 27.152L188.719 26.096H187.183V34H188.831V29.664C188.831 29.072 189.007 28.56 189.359 28.144C189.711 27.728 190.159 27.52 190.735 27.52C191.295 27.52 191.743 27.728 192.079 28.144C192.399 28.56 192.575 29.056 192.575 29.664V34H194.239Z" fill="url(#paint3_linear_3270_6047)"/><g filter="url(#filter0_d_3270_6047)"><rect x="203" y="12" width="31" height="16" rx="2" fill="#F2F2F2"/></g><path d="M212.756 20.112C213.071 20.1707 213.337 20.3307 213.556 20.592C213.775 20.8533 213.884 21.1573 213.884 21.504C213.884 21.7867 213.812 22.0427 213.668 22.272C213.529 22.496 213.324 22.6747 213.052 22.808C212.78 22.936 212.455 23 212.076 23H210.14V17.408H212.02C212.585 17.408 213.015 17.5387 213.308 17.8C213.607 18.0613 213.756 18.4 213.756 18.816C213.756 19.1627 213.663 19.4453 213.476 19.664C213.289 19.8773 213.049 20.0267 212.756 20.112ZM210.7 19.88H212.004C212.383 19.88 212.673 19.792 212.876 19.616C213.084 19.4347 213.188 19.1867 213.188 18.872C213.188 18.5627 213.084 18.32 212.876 18.144C212.673 17.968 212.375 17.88 211.98 17.88H210.7V19.88ZM212.036 22.528C212.441 22.528 212.756 22.432 212.98 22.24C213.209 22.048 213.324 21.784 213.324 21.448C213.324 21.112 213.204 20.8453 212.964 20.648C212.729 20.4453 212.412 20.344 212.012 20.344H210.7V22.528H212.036ZM218.865 20.592C218.865 20.784 218.86 20.9307 218.849 21.032H215.225C215.241 21.3627 215.321 21.6453 215.465 21.88C215.609 22.1147 215.799 22.2933 216.033 22.416C216.268 22.5333 216.524 22.592 216.801 22.592C217.164 22.592 217.468 22.504 217.713 22.328C217.964 22.152 218.129 21.9147 218.209 21.616H218.801C218.695 22.0427 218.465 22.392 218.113 22.664C217.767 22.9307 217.329 23.064 216.801 23.064C216.391 23.064 216.023 22.9733 215.697 22.792C215.372 22.6053 215.116 22.344 214.929 22.008C214.748 21.6667 214.657 21.2693 214.657 20.816C214.657 20.3627 214.748 19.9653 214.929 19.624C215.111 19.2827 215.364 19.0213 215.689 18.84C216.015 18.6587 216.385 18.568 216.801 18.568C217.217 18.568 217.58 18.6587 217.889 18.84C218.204 19.0213 218.444 19.2667 218.609 19.576C218.78 19.88 218.865 20.2187 218.865 20.592ZM218.297 20.576C218.303 20.2507 218.236 19.9733 218.097 19.744C217.964 19.5147 217.78 19.3413 217.545 19.224C217.311 19.1067 217.055 19.048 216.777 19.048C216.361 19.048 216.007 19.1813 215.713 19.448C215.42 19.7147 215.257 20.0907 215.225 20.576H218.297ZM220.618 19.104V21.816C220.618 22.0827 220.669 22.2667 220.77 22.368C220.871 22.4693 221.05 22.52 221.306 22.52H221.818V23H221.218C220.823 23 220.53 22.9093 220.338 22.728C220.146 22.5413 220.05 22.2373 220.05 21.816V19.104H219.442V18.632H220.05V17.536H220.618V18.632H221.818V19.104H220.618ZM222.486 20.808C222.486 20.36 222.574 19.968 222.75 19.632C222.931 19.2907 223.179 19.0293 223.494 18.848C223.814 18.6613 224.174 18.568 224.574 18.568C224.99 18.568 225.347 18.664 225.646 18.856C225.95 19.048 226.168 19.2933 226.302 19.592V18.632H226.862V23H226.302V22.032C226.163 22.3307 225.942 22.5787 225.638 22.776C225.339 22.968 224.982 23.064 224.566 23.064C224.171 23.064 223.814 22.9707 223.494 22.784C223.179 22.5973 222.931 22.3333 222.75 21.992C222.574 21.6507 222.486 21.256 222.486 20.808ZM226.302 20.816C226.302 20.464 226.23 20.1547 226.086 19.888C225.942 19.6213 225.744 19.416 225.494 19.272C225.248 19.128 224.976 19.056 224.678 19.056C224.368 19.056 224.091 19.1253 223.846 19.264C223.6 19.4027 223.406 19.6053 223.262 19.872C223.123 20.1333 223.054 20.4453 223.054 20.808C223.054 21.1653 223.123 21.48 223.262 21.752C223.406 22.0187 223.6 22.224 223.846 22.368C224.091 22.5067 224.368 22.576 224.678 22.576C224.976 22.576 225.248 22.504 225.494 22.36C225.744 22.216 225.942 22.0107 226.086 21.744C226.23 21.4773 226.302 21.168 226.302 20.816Z" fill="black"/><defs><filter id="filter0_d_3270_6047" x="187" y="0" width="63" height="48" filterUnits="userSpaceOnUse" color-interpolation-filters="sRGB"><feFlood flood-opacity="0" result="BackgroundImageFix"/><feColorMatrix in="SourceAlpha" type="matrix" values="0 0 0 0 0 0 0 0 0 0 0 0 0 0 0 0 0 0 127 0" result="hardAlpha"/><feOffset dy="4"/><feGaussianBlur stdDeviation="8"/><feComposite in2="hardAlpha" operator="out"/><feColorMatrix type="matrix" values="0 0 0 0 0 0 0 0 0 0 0 0 0 0 0 0 0 0 0.04 0"/><feBlend mode="normal" in2="BackgroundImageFix" result="effect1_dropShadow_3270_6047"/><feBlend mode="normal" in="SourceGraphic" in2="effect1_dropShadow_3270_6047" result="shape"/></filter><linearGradient id="paint0_linear_3270_6047" x1="1.49846" y1="9.42784" x2="29.7762" y2="36.3248" gradientUnits="userSpaceOnUse"><stop stop-color="white"/><stop offset="1" stop-color="#EDECEE"/></linearGradient><linearGradient id="paint1_linear_3270_6047" x1="0.132547" y1="11.6176" x2="4.89311" y2="14.9044" gradientUnits="userSpaceOnUse"><stop stop-color="white"/><stop offset="1" stop-color="#EDECEE"/></linearGradient><linearGradient id="paint2_linear_3270_6047" x1="68.5" y1="21" x2="68.5" y2="41" gradientUnits="userSpaceOnUse"><stop stop-color="white"/><stop offset="1" stop-color="#E2E2E2"/></linearGradient><linearGradient id="paint3_linear_3270_6047" x1="146.5" y1="20" x2="146.5" y2="41" gradientUnits="userSpaceOnUse"><stop stop-color="white"/><stop offset="1" stop-color="#E2E2E2"/></linearGradient></defs></svg>